<svg id="Layer_1" data-name="Layer 1" xmlns="http://www.w3.org/2000/svg" viewBox="0 0 1162.2 1474.02"><defs><style>.cls-1{fill:#f9f7ce;}.cls-11,.cls-13,.cls-2{fill:#2b130c;}.cls-18,.cls-3{fill:#e5a045;}.cls-4,.cls-5{fill:#222223;}.cls-5,.cls-7,.cls-8,.cls-9{font-size:232.13px;font-family:TypoGraphica;letter-spacing:0.08em;}.cls-6{letter-spacing:0.03em;}.cls-7{fill:#c94343;}.cls-8,.cls-9{fill:none;stroke-miterlimit:10;}.cls-8{stroke:#842c2c;stroke-width:11px;}.cls-9{stroke:#f4e1c1;stroke-width:3px;}.cls-10{fill:#76a38c;}.cls-11,.cls-12,.cls-13,.cls-18{font-size:37.86px;font-family:SSNicksonOne, SS Nickson One;}.cls-11,.cls-12{letter-spacing:0.05em;}.cls-12{fill:#f4ecd9;}.cls-13,.cls-18{letter-spacing:0.05em;}.cls-14{letter-spacing:0.05em;}.cls-15{letter-spacing:0.05em;}.cls-16{letter-spacing:0.05em;}.cls-17{letter-spacing:0.06em;}</style></defs><path class="cls-1" d="M334.8,440.74l.48,2-8.44,1.59.69-2.23-3.38-15.74-4.92,17.31.47,2-8.43,1.59.69-2.23-5.29-25-1.29-2.42,7.66-1.45-.52,1.39L316,435.72,321.34,416l-.45-1.21,7.72-1.46-.58,1.4,3.51,18.1L336.92,413l-.46-1.21,7.73-1.46-1.57,2.92Z"/><path class="cls-1" d="M354.55,439.11l.88-2.06,1.38-27.23-.69-1.73,18.5-3.49.88,4.07-3.15.16-8.83,1.66-.74.58-.44,8.82.69.32,2.46-.47,3.08-1.06-.25,4.85-3,.09-2.47.46-.73.59-.45,8.77.69.32,8.83-1.67,3.2-1L373,435.62Z"/><path class="cls-1" d="M405,429.59l-18.49,3.49.87-2,1.38-27.23-.68-1.77,7.66-1.44-.82,2.05-1.25,24.78.69.31,8.76-1.65,3.2-1.05Z"/><path class="cls-1" d="M418.89,425.07l1.38-27.19,3.21-2.51,12.33-2.32,2.95,1.34-.2,3.92.69,1.73-7.72,1.46.93-2,.08-1.55-.69-.32-4.8.91-.74.58-1.13,22.37.69.32,4.8-.91.74-.58.07-1.51-.74-1.72,7.72-1.46-.88,2-.2,4-3.14,2.49-12.33,2.33Z"/><path class="cls-1" d="M471.73,388.17l-1.38,27.18-3.15,2.5-12.33,2.32-3-1.33,1.38-27.18,3.21-2.51,12.33-2.33Zm-7.05,3.31-4.67.88-.74.58-1.13,22.33.69.32,4.67-.89.74-.58,1.13-22.33Z"/><path class="cls-1" d="M501.07,401.39,498,402l-5.88-9.37-1,18.86.68,1.73-7.65,1.45.87-2,1.38-27.23-.68-1.77,6.88-1.3,7.33,11.27,8.63-14.28,6.88-1.3-.88,2.06-1.38,27.23.69,1.73-7.66,1.45.87-2,1-18.86Z"/><path class="cls-1" d="M527.35,406.49l.88-2.06,1.38-27.23-.69-1.73,18.5-3.49.89,4.08-3.16.15-8.83,1.66-.73.59-.45,8.81.69.32,2.47-.47,3.07-1.06-.24,4.86-3,.08-2.47.47-.73.58-.45,8.78.69.31,8.83-1.66,3.2-1.05L545.85,403Z"/><path class="cls-1" d="M605.4,365.36l-3.22.16-4,.75-.73.58-1.26,24.78.68,1.73-7.72,1.46.88-2L591.32,368l-.69-.32-4.09.78-3.2,1,1.32-4.57,19.8-3.74Z"/><path class="cls-1" d="M636.61,357l-1.38,27.19-3.15,2.49-12.32,2.33-3-1.33,1.38-27.19,3.21-2.5,12.33-2.33Zm-7,3.32-4.68.88-.73.58L623,384.15l.68.31,4.68-.88.73-.58,1.14-22.33Z"/><path class="cls-2" d="M338.11,444.19l.47,2-8.43,1.59.69-2.23-3.38-15.74-4.93,17.3.48,2-8.44,1.59.69-2.23-5.29-25-1.29-2.43,7.66-1.44-.52,1.39,3.45,18.11,5.37-19.78-.45-1.2,7.72-1.46-.58,1.4,3.52,18.1,5.37-19.78-.45-1.2,7.72-1.46-1.56,2.92Z"/><path class="cls-2" d="M357.85,442.57l.88-2.07,1.38-27.23-.68-1.72,18.49-3.5.89,4.08-3.16.15L366.83,414l-.74.58-.45,8.82.69.31,2.47-.46,3.07-1.07-.24,4.86-3,.09-2.46.46-.74.58L365,436.9l.7.32,8.82-1.67,3.2-1.05-1.32,4.58Z"/><path class="cls-2" d="M408.27,433.05l-18.49,3.49.87-2L392,407.29l-.68-1.77,7.66-1.45-.81,2.06-1.26,24.78.69.31,8.76-1.65,3.21-1.05Z"/><path class="cls-2" d="M422.19,428.52l1.38-27.18,3.21-2.51,12.33-2.33,3,1.35-.2,3.91.68,1.74L434.83,405l.94-2,.08-1.55-.69-.32-4.81.91-.73.58-1.14,22.37.69.32,4.81-.91.73-.58.08-1.52-.75-1.71,7.72-1.46-.87,2-.2,4-3.15,2.5-12.33,2.32Z"/><path class="cls-2" d="M475,391.62l-1.38,27.19-3.15,2.49-12.33,2.33-3-1.33,1.37-27.19,3.22-2.5,12.33-2.33Zm-7,3.32-4.67.88-.73.58-1.14,22.33.69.31,4.68-.88.73-.58,1.14-22.33Z"/><path class="cls-2" d="M504.37,404.84l-3.11.59-5.89-9.36-1,18.86.69,1.73-7.66,1.45.87-2,1.38-27.22-.68-1.77,6.88-1.3,7.34,11.27,8.62-14.29,6.88-1.29-.87,2.06-1.38,27.23.68,1.73-7.66,1.44.88-2,.95-18.86Z"/><path class="cls-2" d="M530.65,410l.88-2.06,1.38-27.23-.68-1.73,18.49-3.49.89,4.07-3.16.16-8.82,1.66-.74.59-.45,8.81.69.32,2.47-.47,3.08-1.06-.25,4.85-3,.09-2.46.46-.74.59-.44,8.77.69.32,8.82-1.67,3.2-1.05-1.32,4.58Z"/><path class="cls-2" d="M608.71,368.82l-3.22.16-4,.75-.74.58-1.26,24.78.69,1.73-7.72,1.46.87-2,1.26-24.77-.69-.32-4.09.77L586.64,373l1.33-4.57,19.79-3.74Z"/><path class="cls-2" d="M639.91,360.5l-1.37,27.19-3.15,2.49-12.33,2.33-3-1.33L621.42,364l3.21-2.5L637,359.16Zm-7,3.31-4.67.88-.74.59-1.13,22.33.69.31,4.67-.88.74-.58,1.13-22.33Z"/><path class="cls-2" d="M337.45,443.5l.47,2-8.43,1.6.69-2.24-3.38-15.73-4.93,17.3.48,2-8.44,1.6.69-2.24-5.29-24.95L308,420.43l7.66-1.44-.52,1.39,3.45,18.1L324,418.71l-.45-1.21,7.72-1.45-.58,1.4,3.52,18.1,5.37-19.78-.45-1.21,7.72-1.45L345.27,416Z"/><path class="cls-2" d="M357.19,441.88l.88-2.07,1.38-27.23-.69-1.73,18.5-3.49.89,4.08-3.16.15-8.82,1.67-.74.58-.45,8.82.69.31,2.47-.46,3.07-1.07L371,426.3l-3,.08-2.46.47-.74.58-.45,8.78.7.32,8.82-1.67,3.2-1.05-1.32,4.57Z"/><path class="cls-2" d="M407.61,432.36l-18.49,3.49.87-2,1.38-27.23-.68-1.77,7.66-1.45-.81,2.05-1.26,24.78.69.32,8.76-1.65,3.21-1.05Z"/><path class="cls-2" d="M421.53,427.83l1.38-27.18,3.21-2.51,12.33-2.33,3,1.34-.2,3.92.68,1.73-7.72,1.46.94-2,.08-1.55-.69-.31-4.81.91-.73.58-1.14,22.37.69.32,4.81-.91.73-.59.08-1.51-.75-1.71,7.72-1.46-.87,2-.2,4-3.15,2.5-12.33,2.32Z"/><path class="cls-2" d="M474.37,390.93,473,418.12l-3.15,2.49-12.33,2.33-3-1.33,1.38-27.19,3.21-2.5,12.33-2.33Zm-7.05,3.31-4.67.89-.74.58L460.78,418l.69.31,4.68-.88.73-.58L468,394.56Z"/><path class="cls-2" d="M503.71,404.15l-3.11.59-5.89-9.36-1,18.86.69,1.73-7.66,1.45.87-2L489,388.16l-.68-1.77,6.88-1.29,7.34,11.26,8.62-14.28,6.88-1.3-.87,2.07-1.38,27.23.68,1.73-7.66,1.44.88-2,.95-18.86Z"/><path class="cls-2" d="M530,409.26l.88-2.07L532.25,380l-.68-1.73,18.49-3.49.89,4.07-3.16.15L539,380.64l-.74.58-.45,8.82.69.31,2.47-.46,3.07-1.07-.24,4.86-3,.09-2.46.46-.74.59-.44,8.77.69.32,8.82-1.67,3.2-1.05-1.32,4.58Z"/><path class="cls-2" d="M608.05,368.13l-3.22.16-4,.75-.74.58-1.26,24.78.69,1.73-7.72,1.46.87-2L594,370.78l-.7-.31-4.08.77L586,372.29l1.33-4.57L607.1,364Z"/><path class="cls-2" d="M639.25,359.81,637.87,387l-3.14,2.49-12.33,2.33-3-1.33,1.38-27.19,3.21-2.51,12.33-2.32Zm-7,3.31-4.67.88-.74.59-1.13,22.33.69.31,4.67-.88.74-.59,1.13-22.33Z"/><path class="cls-2" d="M336.79,442.81l.47,2-8.44,1.59.7-2.23-3.38-15.74-4.93,17.31.48,2-8.44,1.59.69-2.23-5.29-25-1.29-2.42L315,418.3l-.52,1.39,3.45,18.1L323.32,418l-.45-1.21,7.72-1.45-.58,1.4,3.51,18.09,5.38-19.77-.46-1.21,7.73-1.46-1.56,2.93Z"/><path class="cls-2" d="M356.53,441.18l.88-2.06,1.38-27.23-.69-1.73,18.5-3.49.89,4.08-3.16.15-8.83,1.67-.73.58-.45,8.82.69.31,2.47-.47,3.07-1.06-.24,4.86-3,.08-2.46.47-.74.58-.45,8.78.69.31,8.83-1.66,3.2-1.05L375,437.69Z"/><path class="cls-2" d="M407,431.67l-18.49,3.49.87-2,1.38-27.22-.68-1.77,7.66-1.45-.81,2.05-1.26,24.78.69.32,8.76-1.66,3.21-1.05Z"/><path class="cls-2" d="M420.87,427.14,422.25,400l3.21-2.5,12.33-2.33,3,1.34-.2,3.92.68,1.73-7.72,1.46.94-2,.08-1.55-.7-.31-4.8.9-.74.59-1.13,22.37.69.31,4.8-.9.74-.59.08-1.51-.75-1.72,7.72-1.45-.87,2-.2,4-3.15,2.49-12.33,2.33Z"/><path class="cls-2" d="M473.71,390.24l-1.38,27.19-3.15,2.49-12.33,2.33-3-1.33,1.38-27.19,3.22-2.5,12.33-2.33Zm-7,3.31-4.67.88-.74.59-1.13,22.33.69.31,4.67-.88.74-.58,1.13-22.33Z"/><path class="cls-2" d="M503.05,403.46l-3.11.59-5.89-9.36-1,18.86.69,1.73-7.66,1.44.87-2,1.38-27.23-.68-1.77,6.88-1.3,7.33,11.27,8.63-14.28,6.88-1.3-.87,2.07-1.38,27.22.68,1.73-7.66,1.45.88-2,.95-18.86Z"/><path class="cls-2" d="M529.33,408.57l.88-2.07,1.38-27.23-.68-1.73,18.49-3.49.89,4.08-3.16.15L538.31,380l-.74.58-.45,8.82.69.31,2.47-.46,3.07-1.07-.24,4.86-3,.09-2.46.46-.74.58-.45,8.78.7.32,8.82-1.67,3.2-1.05-1.32,4.58Z"/><path class="cls-2" d="M607.39,367.43l-3.22.17-4,.75-.74.58-1.26,24.78.69,1.73-7.72,1.45.87-2,1.26-24.78-.7-.31-4.08.77-3.21,1.05,1.33-4.58,19.79-3.73Z"/><path class="cls-2" d="M638.59,359.12l-1.38,27.18-3.14,2.5-12.33,2.33-3-1.33,1.38-27.19,3.21-2.51,12.33-2.32Zm-7,3.31-4.67.88-.74.58L625,386.22l.69.32,4.67-.88.74-.59,1.13-22.33Z"/><path class="cls-2" d="M336.12,442.12l.48,2-8.44,1.59.7-2.23-3.38-15.74-4.93,17.31.48,2-8.44,1.59.69-2.23-5.29-25-1.29-2.42,7.66-1.45-.52,1.39,3.45,18.11,5.37-19.77-.45-1.21,7.72-1.46-.58,1.41,3.51,18.09,5.38-19.77-.46-1.21,7.73-1.46L344,414.64Z"/><path class="cls-2" d="M355.87,440.49l.88-2.06,1.38-27.23-.69-1.73,18.5-3.49.89,4.08-3.16.15-8.83,1.66-.73.59-.45,8.81.69.32,2.47-.47,3.07-1.06-.25,4.86-3,.08-2.47.47-.73.58-.45,8.78.69.31,8.83-1.66,3.2-1.05L374.37,437Z"/><path class="cls-2" d="M406.29,431l-18.49,3.49.87-2,1.38-27.22-.68-1.78L397,402l-.81,2.05L395,428.83l.69.32,8.76-1.66,3.2-1.05Z"/><path class="cls-2" d="M420.21,426.45l1.38-27.19,3.21-2.5,12.33-2.33,2.95,1.34-.19,3.92.68,1.73-7.72,1.46.94-2,.07-1.55-.69-.31-4.8.9-.74.59-1.13,22.37.69.31,4.8-.91.74-.58.08-1.51-.75-1.72,7.72-1.46-.87,2-.2,4-3.15,2.49-12.33,2.33Z"/><path class="cls-2" d="M473.05,389.55l-1.38,27.19-3.15,2.49-12.33,2.33-3-1.33L454.55,393l3.21-2.51,12.33-2.32ZM466,392.86l-4.67.88-.74.59-1.13,22.33.69.31,4.67-.88.74-.59,1.13-22.33Z"/><path class="cls-2" d="M502.39,402.77l-3.12.59L493.39,394l-1,18.86.69,1.73L485.46,416l.87-2,1.38-27.23L487,385l6.88-1.3L501.24,395l8.63-14.28,6.88-1.3-.87,2.06-1.39,27.23.69,1.73-7.66,1.45.87-2,1-18.87Z"/><path class="cls-2" d="M528.67,407.88l.88-2.07,1.38-27.23-.69-1.73,18.5-3.49.89,4.08-3.16.15-8.83,1.67-.73.58-.45,8.82.69.31,2.47-.46,3.07-1.07-.24,4.86-3,.08-2.46.47-.74.58-.45,8.78.69.32,8.83-1.67,3.2-1.05-1.32,4.57Z"/><path class="cls-2" d="M606.73,366.74l-3.23.17-4,.74-.74.59L597.55,393l.68,1.73-7.72,1.45.88-2,1.25-24.78-.69-.31-4.09.77-3.2,1.05,1.33-4.58,19.79-3.73Z"/><path class="cls-2" d="M637.93,358.43l-1.38,27.18-3.15,2.5-12.32,2.32-3-1.32,1.38-27.19,3.21-2.51L635,357.08Zm-7,3.31-4.68.88-.73.58-1.13,22.33.69.32,4.67-.88.73-.59,1.14-22.33Z"/><path class="cls-2" d="M335.46,441.43l.48,2L327.5,445l.69-2.23-3.37-15.74-4.93,17.31.48,2L311.93,448l.69-2.23-5.29-25L306,418.36l7.66-1.45-.52,1.39,3.45,18.11L322,416.64l-.45-1.21,7.72-1.46-.58,1.41,3.51,18.09,5.38-19.77-.46-1.21,7.73-1.46L343.28,414Z"/><path class="cls-2" d="M355.21,439.8l.88-2.06,1.38-27.23-.69-1.73,18.5-3.49.88,4.08-3.15.15-8.83,1.66-.73.59-.45,8.81.69.32,2.46-.47,3.08-1.06-.25,4.85-3,.09-2.47.46-.73.59-.45,8.78.69.31,8.83-1.66,3.2-1.05-1.32,4.57Z"/><path class="cls-2" d="M405.63,430.28l-18.49,3.5.87-2,1.38-27.23-.68-1.77,7.66-1.44-.81,2.05-1.26,24.78.69.31,8.76-1.65,3.2-1.05Z"/><path class="cls-2" d="M419.55,425.76l1.38-27.19,3.21-2.51,12.33-2.32,2.95,1.34-.2,3.92.69,1.73-7.72,1.46.93-2,.08-1.55-.69-.32-4.8.91-.74.59-1.13,22.36.69.32,4.8-.91.74-.58.07-1.51-.74-1.72,7.72-1.46-.88,2-.2,4-3.14,2.49-12.33,2.33Z"/><path class="cls-2" d="M472.39,388.86,471,416l-3.15,2.5-12.33,2.33-3-1.33,1.38-27.19,3.21-2.51,12.33-2.32Zm-7.05,3.31-4.67.88-.74.58L458.8,416l.69.32,4.67-.88.74-.59L466,392.48Z"/><path class="cls-2" d="M501.73,402.08l-3.12.59-5.88-9.36-1,18.86.68,1.73-7.65,1.44.87-2,1.38-27.23-.68-1.77,6.88-1.3,7.33,11.27L509.21,380l6.88-1.3-.87,2.06L513.83,408l.69,1.73-7.66,1.45.87-2,1-18.86Z"/><path class="cls-2" d="M528,407.18l.88-2.06,1.38-27.23-.69-1.73,18.5-3.49.89,4.08-3.16.15L537,378.57l-.73.58L535.8,388l.69.32,2.47-.47,3.07-1.06-.24,4.86-3,.08-2.47.47-.73.58-.45,8.78.69.31,8.83-1.66,3.2-1.05-1.32,4.57Z"/><path class="cls-2" d="M606.06,366.05l-3.22.17-4,.74-.73.58-1.26,24.78.68,1.73-7.72,1.46.88-2L592,368.71l-.69-.31-4.09.77-3.2,1,1.32-4.57,19.8-3.74Z"/><path class="cls-2" d="M637.27,357.73l-1.38,27.19-3.15,2.5-12.32,2.32-3-1.33,1.38-27.18,3.21-2.51,12.33-2.33Zm-7,3.32-4.68.88-.73.58-1.13,22.33.69.32,4.67-.89.73-.58,1.14-22.33Z"/><path class="cls-2" d="M334.8,440.74l.48,2-8.44,1.59.69-2.23-3.38-15.74-4.92,17.31.47,2-8.43,1.59.69-2.23-5.29-25-1.29-2.42,7.66-1.45-.52,1.39L316,435.72,321.34,416l-.45-1.21,7.72-1.46-.58,1.4,3.51,18.1L336.92,413l-.46-1.21,7.73-1.46-1.57,2.92Z"/><path class="cls-2" d="M354.55,439.11l.88-2.06,1.38-27.23-.69-1.73,18.5-3.49.88,4.07-3.15.16-8.83,1.66-.74.58-.44,8.82.69.32,2.46-.47,3.08-1.06-.25,4.85-3,.09-2.47.46-.73.59-.45,8.77.69.32,8.83-1.67,3.2-1L373,435.62Z"/><path class="cls-2" d="M405,429.59l-18.49,3.49.87-2,1.38-27.23-.68-1.77,7.66-1.44-.82,2.05-1.25,24.78.69.31,8.76-1.65,3.2-1.05Z"/><path class="cls-2" d="M418.89,425.07l1.38-27.19,3.21-2.51,12.33-2.32,2.95,1.34-.2,3.92.69,1.73-7.72,1.46.93-2,.08-1.55-.69-.32-4.8.91-.74.58-1.13,22.37.69.32,4.8-.91.74-.58.07-1.51-.74-1.72,7.72-1.46-.88,2-.2,4-3.14,2.49-12.33,2.33Z"/><path class="cls-2" d="M471.73,388.17l-1.38,27.18-3.15,2.5-12.33,2.32-3-1.33,1.38-27.18,3.21-2.51,12.33-2.33Zm-7.05,3.31-4.67.88-.74.58-1.13,22.33.69.32,4.67-.89.74-.58,1.13-22.33Z"/><path class="cls-2" d="M501.07,401.39,498,402l-5.88-9.37-1,18.86.68,1.73-7.65,1.45.87-2,1.38-27.23-.68-1.77,6.88-1.3,7.33,11.27,8.63-14.28,6.88-1.3-.88,2.06-1.38,27.23.69,1.73-7.66,1.45.87-2,1-18.86Z"/><path class="cls-2" d="M527.35,406.49l.88-2.06,1.38-27.23-.69-1.73,18.5-3.49.89,4.08-3.16.15-8.83,1.66-.73.59-.45,8.81.69.32,2.47-.47,3.07-1.06-.24,4.86-3,.08-2.47.47-.73.58-.45,8.78.69.31,8.83-1.66,3.2-1.05L545.85,403Z"/><path class="cls-2" d="M605.4,365.36l-3.22.16-4,.75-.73.58-1.26,24.78.68,1.73-7.72,1.46.88-2L591.32,368l-.69-.32-4.09.78-3.2,1,1.32-4.57,19.8-3.74Z"/><path class="cls-2" d="M636.61,357l-1.38,27.19-3.15,2.49-12.32,2.33-3-1.33,1.38-27.19,3.21-2.5,12.33-2.33Zm-7,3.32-4.68.88-.73.58L623,384.15l.68.31,4.68-.88.73-.58,1.14-22.33Z"/><path class="cls-3" d="M334.8,440.74l.48,2-8.44,1.59.69-2.23-3.38-15.74-4.92,17.31.47,2-8.43,1.59.69-2.23-5.29-25-1.29-2.42,7.66-1.45-.52,1.39L316,435.72,321.34,416l-.45-1.21,7.72-1.46-.58,1.4,3.51,18.1L336.92,413l-.46-1.21,7.73-1.46-1.57,2.92Z"/><path class="cls-3" d="M354.55,439.11l.88-2.06,1.38-27.23-.69-1.73,18.5-3.49.88,4.07-3.15.16-8.83,1.66-.74.58-.44,8.82.69.32,2.46-.47,3.08-1.06-.25,4.85-3,.09-2.47.46-.73.59-.45,8.77.69.32,8.83-1.67,3.2-1L373,435.62Z"/><path class="cls-3" d="M405,429.59l-18.49,3.49.87-2,1.38-27.23-.68-1.77,7.66-1.44-.82,2.05-1.25,24.78.69.31,8.76-1.65,3.2-1.05Z"/><path class="cls-3" d="M418.89,425.07l1.38-27.19,3.21-2.51,12.33-2.32,2.95,1.34-.2,3.92.69,1.73-7.72,1.46.93-2,.08-1.55-.69-.32-4.8.91-.74.58-1.13,22.37.69.32,4.8-.91.74-.58.07-1.51-.74-1.72,7.72-1.46-.88,2-.2,4-3.14,2.49-12.33,2.33Z"/><path class="cls-3" d="M471.73,388.17l-1.38,27.18-3.15,2.5-12.33,2.32-3-1.33,1.38-27.18,3.21-2.51,12.33-2.33Zm-7.05,3.31-4.67.88-.74.58-1.13,22.33.69.32,4.67-.89.74-.58,1.13-22.33Z"/><path class="cls-3" d="M501.07,401.39,498,402l-5.88-9.37-1,18.86.68,1.73-7.65,1.45.87-2,1.38-27.23-.68-1.77,6.88-1.3,7.33,11.27,8.63-14.28,6.88-1.3-.88,2.06-1.38,27.23.69,1.73-7.66,1.45.87-2,1-18.86Z"/><path class="cls-3" d="M527.35,406.49l.88-2.06,1.38-27.23-.69-1.73,18.5-3.49.89,4.08-3.16.15-8.83,1.66-.73.59-.45,8.81.69.32,2.47-.47,3.07-1.06-.24,4.86-3,.08-2.47.47-.73.58-.45,8.78.69.31,8.83-1.66,3.2-1.05L545.85,403Z"/><path class="cls-3" d="M605.4,365.36l-3.22.16-4,.75-.73.58-1.26,24.78.68,1.73-7.72,1.46.88-2L591.32,368l-.69-.32-4.09.78-3.2,1,1.32-4.57,19.8-3.74Z"/><path class="cls-3" d="M636.61,357l-1.38,27.19-3.15,2.49-12.32,2.33-3-1.33,1.38-27.19,3.21-2.5,12.33-2.33Zm-7,3.32-4.68.88-.73.58L623,384.15l.68.31,4.68-.88.73-.58,1.14-22.33Z"/><path class="cls-4" d="M852.73,367.41l-10.67-6.56s-10.14-11.64-2.83-29.22S866,313,866,313s8.55.07,12.48,3.76l8.2,5.16s8-16.26,24.09-16.18,19.37,6.95,19.37,6.95L953,337.06l-5,21.83-12.91,16.05Z"/><text class="cls-5" transform="matrix(0.95, -0.17, 0, 1, 233.58, 632.55)">J<tspan class="cls-6" x="102.96" y="0">umanji</tspan></text><path class="cls-4" d="M304.91,458l-24.85-31.83-53.12,10.48L228,592.28s-3.56,35.83-41.16,41.73L188,682.82l41.66,14.29,27.83-33,24.72-35.36,1.58-154.49Z"/><polygon class="cls-4" points="468.57 511.37 419.37 509.16 419.55 468.49 468.76 470.69 468.57 511.37"/><path class="cls-4" d="M637.91,552.13,597.54,533.7l-13.06-22.65-12-30.59L576,447.07a87.6,87.6,0,0,1,35.92-36.44c25.39-13.57,46.75-9.74,46.75-9.74s12.83,1.22,21,6.06l26.88,20.71a55.33,55.33,0,0,1,19.22-32.38,82.16,82.16,0,0,1,35.27-17s18.77-4.6,36.49,6.11L831,417.58,838.78,431l-3,76.59-28.37,18.54L770,510.75l-24.13,27L708.11,522l-8,24.25L662,530.52l-22.46,21.69Z"/><polygon class="cls-4" points="636.59 481 596.03 479.18 596.21 439.76 636.77 441.58 636.59 481"/><path class="cls-4" d="M302.24,466.73l33.36-6.62,13.51,19.47-1.66-19.68,50.92-10.23L408,462.62s5.76-12.72,23.78-21.72,40.38-8,49.57-3.31c0,0,24.22-20.23,54-14.2a71.84,71.84,0,0,1,17.52,5l29.72,23.93,7.91,93.7,5.17,18.56-35.11,7-36.77-15.72-24.68,26.6L462.3,567.59l-25.56,27-37.2-15.73s78.41-76.19,78.85-77.45-16.5-36.54-16.5-36.54l-28.14,15.78L460.25,536,423.8,546.68l-6.12-4.11-25.19,43.62-42.2,20.89L310,589.29l-8.26-15.75L296.15,554,288.45,509Z"/><polygon class="cls-4" points="837.25 428.41 837.51 370.24 890.09 360.45 934.53 352.54 958.4 383.02 937.49 496.85 925.61 505.26 888.18 489.84 864.51 559.74 825.43 546.48 810.48 506.81 838.79 428.48 831.19 437.09 837.25 428.41"/><text class="cls-7" transform="matrix(0.95, -0.17, 0, 1, 195.81, 610.84)">J<tspan class="cls-6" x="102.96" y="0">umanji</tspan></text><text class="cls-8" transform="matrix(0.95, -0.17, 0, 1, 198.58, 610.97)">J<tspan class="cls-6" x="102.96" y="0">umanji</tspan></text><text class="cls-9" transform="matrix(0.95, -0.17, 0, 1, 194.81, 610.79)">J<tspan class="cls-6" x="102.96" y="0">umanji</tspan></text><path d="M523,639.17a8.82,8.82,0,0,0-2-1.62,7.89,7.89,0,0,0,1.15-.76l2.31-1.86a8.49,8.49,0,0,0,3.17-6.32l.71-19.79a8.51,8.51,0,0,0-2.74-6.56c-.19-.2-.38-.4-.58-.59s-.38-.4-.58-.59-.38-.4-.59-.59a8,8,0,0,0-.58-.59,8.44,8.44,0,0,0-3-2.16l-2.21-.94a8.29,8.29,0,0,0-3.25-.67,8.17,8.17,0,0,0-1.77.17l-9,1.83a8.38,8.38,0,0,0-3.67,1.74L499,601l-.44-.19a8.56,8.56,0,0,0-3.34-.71,8.17,8.17,0,0,0-1.77.17l-8.94,1.83a8.52,8.52,0,0,0-3.23,1.42,8.17,8.17,0,0,0-1.78-.21,8.85,8.85,0,0,0-1.77.17l-5.56,1.14a8.46,8.46,0,0,0-3.22,1.4,8.47,8.47,0,0,0-3.51,0l-5.61,1.15a8.23,8.23,0,0,0-2,.66l-.27,0a9.65,9.65,0,0,0-1.77.17l-5.55,1.14a8.48,8.48,0,0,1-3.25.66l-5.56,1.14a8.5,8.5,0,0,0-1.92.64l-.22,0a8.93,8.93,0,0,0-1.77.18l-5.55,1.13a8.39,8.39,0,0,0-3.22,1.4,8.52,8.52,0,0,0-3.52,0l-5.6,1.14a8.7,8.7,0,0,0-2,.66h-.27a8.17,8.17,0,0,0-1.77.17l-5.56,1.13a8.43,8.43,0,0,0-2.41.9,8.64,8.64,0,0,0-2.58.12l-5,1a8.52,8.52,0,0,0-4.36,2.4,8.51,8.51,0,0,0-3.19-.66,8.17,8.17,0,0,0-1.77.17l-5.6,1.14a8.57,8.57,0,0,0-4.37,2.39,8.62,8.62,0,0,0-3.19-.66,8.84,8.84,0,0,0-1.76.18l-13.42,2.74A8,8,0,0,0,360,628a8.52,8.52,0,0,0-2.62.12L344,630.84a8.51,8.51,0,0,0-2.42.91,8.08,8.08,0,0,0-.85,0,8.17,8.17,0,0,0-1.77.17l-11.72,2.39a8.57,8.57,0,0,0-3.63,1.71l-2.31,1.86a8.52,8.52,0,0,0-3.17,6.32l-.7,19.79a8.5,8.5,0,0,0,2.73,6.55,8.11,8.11,0,0,0,.58.59,8.35,8.35,0,0,0,.59.6,8,8,0,0,0,.58.59c.18.2.38.4.58.59a8.48,8.48,0,0,0,3,2.16l2.21.94a8.52,8.52,0,0,0,5,.5l11.73-2.4a8.4,8.4,0,0,0,2.45-.91,8.65,8.65,0,0,0,2.58-.12l13.42-2.74a8,8,0,0,0,2.45-.92,8.38,8.38,0,0,0,2.59-.11l13.42-2.74a8.49,8.49,0,0,0,2.42-.9,8.59,8.59,0,0,0,2.57-.12l4.22-.86M410,660.5l-.14-.15.21,0A1.46,1.46,0,0,1,410,660.5Z"/><path class="cls-10" d="M519,637.17a8.82,8.82,0,0,0-2-1.62,7.89,7.89,0,0,0,1.15-.76l2.31-1.86a8.49,8.49,0,0,0,3.17-6.32l.71-19.79a8.51,8.51,0,0,0-2.74-6.56c-.19-.2-.38-.4-.58-.59s-.38-.4-.58-.59-.38-.4-.59-.59a8,8,0,0,0-.58-.59,8.44,8.44,0,0,0-3-2.16l-2.21-.94a8.29,8.29,0,0,0-3.25-.67,8.17,8.17,0,0,0-1.77.17l-8.95,1.83a8.38,8.38,0,0,0-3.67,1.74L495,599l-.44-.19a8.56,8.56,0,0,0-3.34-.71,8.17,8.17,0,0,0-1.77.17l-8.94,1.83a8.52,8.52,0,0,0-3.23,1.42,8.17,8.17,0,0,0-1.78-.21,8.85,8.85,0,0,0-1.77.17l-5.56,1.14a8.46,8.46,0,0,0-3.22,1.4,8.47,8.47,0,0,0-3.51,0l-5.61,1.15a8.23,8.23,0,0,0-2,.66l-.27,0a9.65,9.65,0,0,0-1.77.17l-5.55,1.14a8.48,8.48,0,0,1-3.25.66l-5.56,1.14a8.5,8.5,0,0,0-1.92.64l-.22,0a8.93,8.93,0,0,0-1.77.18l-5.55,1.13a8.39,8.39,0,0,0-3.22,1.4,8.52,8.52,0,0,0-3.52,0l-5.6,1.14a8.7,8.7,0,0,0-2,.66h-.27a8.17,8.17,0,0,0-1.77.17l-5.56,1.13a8.43,8.43,0,0,0-2.41.9,8.64,8.64,0,0,0-2.58.12l-5,1a8.52,8.52,0,0,0-4.36,2.4,8.51,8.51,0,0,0-3.19-.66,8.17,8.17,0,0,0-1.77.17l-5.6,1.14a8.57,8.57,0,0,0-4.37,2.39,8.62,8.62,0,0,0-3.19-.66,8.84,8.84,0,0,0-1.76.18l-13.42,2.74A8,8,0,0,0,356,626a8.52,8.52,0,0,0-2.62.12L340,628.84a8.51,8.51,0,0,0-2.42.91,8.08,8.08,0,0,0-.85,0,8.17,8.17,0,0,0-1.77.17l-11.72,2.39a8.57,8.57,0,0,0-3.63,1.71l-2.31,1.86a8.52,8.52,0,0,0-3.17,6.32l-.7,19.79a8.5,8.5,0,0,0,2.73,6.55,8.11,8.11,0,0,0,.58.59,8.35,8.35,0,0,0,.59.6,8,8,0,0,0,.58.59c.18.2.38.4.58.59a8.48,8.48,0,0,0,3,2.16l2.21.94a8.52,8.52,0,0,0,5,.5l11.73-2.4a8.4,8.4,0,0,0,2.45-.91,8.65,8.65,0,0,0,2.58-.12l13.42-2.74a8,8,0,0,0,2.45-.92,8.38,8.38,0,0,0,2.59-.11l13.42-2.74a8.49,8.49,0,0,0,2.42-.9,8.59,8.59,0,0,0,2.57-.12l4.22-.86M406,658.5l-.14-.15.21,0A1.46,1.46,0,0,1,406,658.5Z"/><text/><text class="cls-11" transform="matrix(1.32, -0.26, 0.09, 1, 327.98, 667.29)">TEAM HUNT</text><text/><text class="cls-11" transform="matrix(1.32, -0.26, 0.09, 1, 327.35, 666.66)">TEAM HUNT</text><text/><text class="cls-11" transform="matrix(1.32, -0.26, 0.09, 1, 326.73, 665.93)">TEAM HUNT</text><text/><text class="cls-11" transform="matrix(1.32, -0.26, 0.09, 1, 326.1, 665.21)">TEAM HUNT</text><text/><text class="cls-11" transform="matrix(1.32, -0.26, 0.09, 1, 325.21, 664.39)">TEAM HUNT</text><text/><text class="cls-12" transform="matrix(1.32, -0.26, 0.09, 1, 324.49, 664.03)">TEAM HUNT</text><text/><text class="cls-13" transform="matrix(1.32, -0.25, 0.08, 1, 573.86, 615.82)">N<tspan class="cls-14" x="17.27" y="0">E</tspan><tspan class="cls-15" x="31.39" y="0">XT L</tspan><tspan class="cls-16" x="86.29" y="0">E</tspan><tspan x="100.61" y="0">VE</tspan><tspan class="cls-17" x="131.77" y="0">L</tspan><tspan x="145.59" y="0">S</tspan></text><text/><text class="cls-13" transform="matrix(1.32, -0.25, 0.08, 1, 572.67, 615.57)">N<tspan class="cls-14" x="17.27" y="0">E</tspan><tspan class="cls-15" x="31.39" y="0">XT L</tspan><tspan class="cls-16" x="86.29" y="0">E</tspan><tspan x="100.61" y="0">VE</tspan><tspan class="cls-17" x="131.77" y="0">L</tspan><tspan x="145.59" y="0">S</tspan></text><text/><text class="cls-13" transform="matrix(1.32, -0.25, 0.08, 1, 571.59, 614.84)">N<tspan class="cls-14" x="17.27" y="0">E</tspan><tspan class="cls-15" x="31.39" y="0">XT L</tspan><tspan class="cls-16" x="86.29" y="0">E</tspan><tspan x="100.61" y="0">VE</tspan><tspan class="cls-17" x="131.77" y="0">L</tspan><tspan x="145.59" y="0">S</tspan></text><text/><text class="cls-13" transform="matrix(1.32, -0.25, 0.08, 1, 570.15, 614.47)">N<tspan class="cls-14" x="17.27" y="0">E</tspan><tspan class="cls-15" x="31.39" y="0">XT L</tspan><tspan class="cls-16" x="86.29" y="0">E</tspan><tspan x="100.61" y="0">VE</tspan><tspan class="cls-17" x="131.77" y="0">L</tspan><tspan x="145.59" y="0">S</tspan></text><text/><text class="cls-18" transform="matrix(1.32, -0.25, 0.08, 1, 569.2, 613.74)">N<tspan class="cls-14" x="17.27" y="0">E</tspan><tspan class="cls-15" x="31.39" y="0">XT L</tspan><tspan class="cls-16" x="86.29" y="0">E</tspan><tspan x="100.61" y="0">VE</tspan><tspan class="cls-17" x="131.77" y="0">L</tspan><tspan x="145.59" y="0">S</tspan></text></svg>