<svg id="Layer_1" data-name="Layer 1" xmlns="http://www.w3.org/2000/svg" viewBox="0 0 146.8 42.7"><path d="M619,467.58h15.09c.54,0,.54,0,.54.54,0,1.74,0,3.48,0,5.22,0,.4-.08.54-.52.54h-23.7c-.37,0-.5-.09-.5-.48q0-15.7,0-31.41c0-.38.1-.5.49-.5q11.87,0,23.74,0c.39,0,.49.12.49.5q0,2.67,0,5.34c0,.39-.13.48-.5.48H619v6.7h13.88c.38,0,.52.09.52.5,0,1.77,0,3.53,0,5.3,0,.4-.11.51-.51.51H619Z" transform="translate(-547.35 -435.9)"/><path d="M648.66,447.8v6.7h14c.42,0,.54.11.53.53,0,1.77,0,3.53,0,5.3,0,.39-.13.48-.5.48h-14v6.79h15.16c.55,0,.55,0,.55.53,0,1.77,0,3.53,0,5.3,0,.36-.1.47-.47.47H640.14c-.36,0-.47-.11-.46-.47q0-15.72,0-31.45c0-.37.12-.46.48-.46h23.78c.38,0,.46.12.46.47,0,1.77,0,3.54,0,5.3,0,.42-.1.54-.53.54-4.87,0-9.75,0-14.62,0Z" transform="translate(-547.35 -435.9)"/><path d="M678.41,447.8v6.7h14c.39,0,.53.09.52.5,0,1.77,0,3.53,0,5.3,0,.4-.11.51-.51.51h-14v6.79h15.17c.54,0,.54,0,.54.54,0,1.74,0,3.48,0,5.22,0,.4-.08.54-.52.54h-23.7c-.37,0-.5-.09-.5-.48q0-15.7,0-31.41c0-.38.1-.5.48-.5q11.88,0,23.74,0c.39,0,.5.12.49.5q0,2.67,0,5.34c0,.39-.13.48-.5.48H678.41Z" transform="translate(-547.35 -435.9)"/><path d="M596.26,457.69V442.05c0-.55,0-.55.54-.55,2.67,0,5.33,0,8,0,.4,0,.5.13.5.52q0,15.67,0,31.36c0,.4-.11.51-.51.51q-4,0-8,0c-.41,0-.51-.12-.51-.52Q596.27,465.53,596.26,457.69Z" transform="translate(-547.35 -435.9)"/><path d="M547.35,457c-.05-.47.4-.8.8-1.11,1-.73,2-1.39,2.93-2.13,1.18-.91,2.36-1.83,3.47-2.82,1.78-1.6,3.54-3.22,5.24-4.91,1.28-1.28,2.48-2.65,3.63-4,1.5-1.8,2.93-3.66,4.37-5.5a1.44,1.44,0,0,1,2.36,0c.64.82,1.2,1.71,1.84,2.52.88,1.14,1.78,2.27,2.73,3.34,1.18,1.33,2.42,2.6,3.63,3.89.62.65,1.21,1.33,1.86,1.93,1.39,1.27,2.78,2.55,4.24,3.73,1.67,1.35,3.41,2.62,5.14,3.89a2.29,2.29,0,0,1,.88.81,1.28,1.28,0,0,1-.56,1.93,41.15,41.15,0,0,0-5.27,3.92c-1.49,1.26-2.93,2.56-4.38,3.87-.87.8-1.74,1.61-2.55,2.47-1.32,1.43-2.64,2.87-3.88,4.37s-2.42,3.11-3.62,4.67a1.38,1.38,0,0,1-1.85.63,1.43,1.43,0,0,1-.62-.48c-.88-1.19-1.7-2.42-2.6-3.59s-1.76-2.21-2.69-3.26-1.88-2.05-2.87-3c-1.28-1.28-2.58-2.56-3.94-3.77a73.94,73.94,0,0,0-6.89-5.45l-.81-.57A1.44,1.44,0,0,1,547.35,457ZM569,473.27a4,4,0,0,0,2-.85,52.66,52.66,0,0,0,6.82-5.82c1.42-1.41,2.77-2.91,4.09-4.41a33.19,33.19,0,0,0,2.37-3.05,3,3,0,0,0,.75-1.88,3.46,3.46,0,0,0-.8-1.81,51,51,0,0,0-5.5-6.59c-1.54-1.56-3.18-3-4.83-4.5a30.23,30.23,0,0,0-3-2.37,2.87,2.87,0,0,0-3.46-.1c-.5.38-1,.78-1.5,1.14a49.05,49.05,0,0,0-5.49,4.79c-1.54,1.49-3,3.06-4.43,4.67a38.5,38.5,0,0,0-2.69,3.52,2.16,2.16,0,0,0,0,2.58,40.41,40.41,0,0,0,4.35,5.41c1,1.12,2.19,2.18,3.31,3.23s2.24,2,3.37,3A21.9,21.9,0,0,0,568.1,473,4.92,4.92,0,0,0,569,473.27Z" transform="translate(-547.35 -435.9)"/><path d="M578.13,477.35a2.19,2.19,0,0,1-2.27-2.2,2.29,2.29,0,0,1,4.58,0A2.18,2.18,0,0,1,578.13,477.35Zm-.19-2.08-.16,0a4.56,4.56,0,0,1,0,.74c0,.12-.15.21-.22.31-.09-.1-.25-.21-.26-.32,0-.6,0-1.21,0-1.82,0-.28.12-.37.38-.34s.57.06.86.07a.63.63,0,0,1,.65.52.66.66,0,0,1-.29.75.34.34,0,0,0-.11.32c.13.28.3.54.46.82a1.67,1.67,0,1,0-2.68-1.45,1.73,1.73,0,0,0,1.18,1.91,1.26,1.26,0,0,0,1.44-.47c-.57.15-.75-.22-.92-.62A3.2,3.2,0,0,0,577.94,475.27Zm-.13-.35c.29-.07.53-.12.75-.19,0,0,0-.23,0-.25-.22-.09-.46-.16-.74-.25Z" transform="translate(-547.35 -435.9)"/><path d="M584.11,457.43a5.34,5.34,0,0,1-.42,1c-.87,1.18-1.74,2.36-2.67,3.49-.68.83-1.45,1.58-2.19,2.36-.55.59-1.09,1.21-1.68,1.76a44.34,44.34,0,0,1-5.3,4.57c-.49.34-.94.75-1.44,1.08a2.23,2.23,0,0,1-3-.22c-1.4-1.15-2.84-2.24-4.18-3.45-1.65-1.49-3.27-3-4.78-4.63-1.36-1.43-2.57-3-3.81-4.53a2.22,2.22,0,0,1,0-3.17c1.06-1.32,2.14-2.63,3.26-3.91.95-1.08,1.94-2.14,3-3.14a58.16,58.16,0,0,1,6.72-5.62,2.15,2.15,0,0,1,3,0,27.77,27.77,0,0,1,2.56,2c1.69,1.49,3.4,3,5,4.57a42.12,42.12,0,0,1,5.41,6.51A7.41,7.41,0,0,1,584.11,457.43Zm-17.92-2.16c0-.09-.05-.14-.08-.16l-1.73-1.1a.56.56,0,0,0-.35-.08,10.06,10.06,0,0,0-1.45.42,6.77,6.77,0,0,0-2.52,1.6,1.55,1.55,0,0,0-.2,2.09A4.27,4.27,0,0,0,561,459a16.29,16.29,0,0,0,7,1.64,20.69,20.69,0,0,0,5.32-.49,8.51,8.51,0,0,0,3.29-1.32,1.62,1.62,0,0,0,0-2.81l-1-.68.6-.21V455l-3.88-.95c.23.66.44,1.24.65,1.85l.49-.12a2.12,2.12,0,0,1,.85-.11,2.81,2.81,0,0,1,1.52.92,1,1,0,0,1-.06,1.38,4.08,4.08,0,0,1-1.78,1,16.78,16.78,0,0,1-5.6.67,15.73,15.73,0,0,1-3.91-.69,2.93,2.93,0,0,1-1.47-.87.83.83,0,0,1-.08-1.07,3,3,0,0,1,1.76-1.28C565.16,455.56,565.67,455.43,566.19,455.27Zm5.33-2.68c-.86-2.35-1.68-4.61-2.5-6.87l-.12,0-2.35,6.8c.46,0,.82.11,1.19.12s.36.16.35.42c0,.88-.05,1.76-.09,2.64s-.11,1.78-.16,2.66c0,.27,0,.54,0,.85H570c0-.64-.09-1.22-.11-1.79-.06-1.42-.12-2.85-.17-4.28,0-.49.06-.56.57-.56Zm-4,15a10.76,10.76,0,0,0,2.65.1c.08,0,.23-.23.23-.35,0-.48,0-1-.07-1.44,0-.94-.05-1.89-.09-2.84,0-.55,0-1.09-.09-1.64,0-.17-.14-.46-.22-.46-.71,0-1.42,0-2.13,0C567.7,463.22,567.6,465.41,567.51,467.62Z" transform="translate(-547.35 -435.9)"/></svg>