<svg id="Layer_1" data-name="Layer 1" xmlns="http://www.w3.org/2000/svg" viewBox="0 0 146.79 42.73"><defs><style>.cls-1{fill:#ddd;}</style></defs><path class="cls-1" d="M71.65,31.68H86.74c.54,0,.54,0,.54.54v5.22c0,.4-.08.54-.52.54H63.06c-.37,0-.5-.09-.5-.48V6.09c0-.38.1-.5.49-.5H86.79c.39,0,.49.12.49.5v5.34c0,.39-.13.48-.5.48H71.65v6.7H85.53c.38,0,.52.09.52.5v5.3c0,.4-.11.51-.51.51H71.65Z" transform="translate(0.01 -0.02)"/><path class="cls-1" d="M101.31,11.9v6.7h14c.42,0,.54.11.53.53v5.3c0,.39-.13.48-.5.48h-14V31.7H116.5c.55,0,.55,0,.55.53v5.3c0,.36-.1.47-.47.47H92.79c-.36,0-.47-.11-.46-.47V6.08c0-.37.12-.46.48-.46h23.78c.38,0,.46.12.46.47v5.3c0,.42-.1.54-.53.54H101.9Z" transform="translate(0.01 -0.02)"/><path class="cls-1" d="M131.06,11.9v6.7h14c.39,0,.53.09.52.5v5.3c0,.4-.11.51-.51.51h-14V31.7h15.17c.54,0,.54,0,.54.54v5.22c0,.4-.08.54-.52.54h-23.7c-.37,0-.5-.09-.5-.48V6.11c0-.38.1-.5.48-.5h23.74c.39,0,.5.12.49.5v5.34c0,.39-.13.48-.5.48H131.06Z" transform="translate(0.01 -0.02)"/><path class="cls-1" d="M48.91,21.79V6.15c0-.55,0-.55.54-.55h8c.4,0,.5.13.5.52V37.48c0,.4-.11.51-.51.51h-8c-.41,0-.51-.12-.51-.52Q48.92,29.63,48.91,21.79Z" transform="translate(0.01 -0.02)"/><path class="cls-1" d="M0,21.1c0-.47.4-.8.8-1.11,1-.73,2-1.39,2.93-2.13C4.91,17,6.09,16,7.2,15c1.78-1.6,3.54-3.22,5.24-4.91,1.28-1.28,2.48-2.65,3.63-4,1.5-1.8,2.93-3.66,4.37-5.5a1.44,1.44,0,0,1,2.36,0c.64.82,1.2,1.71,1.84,2.52.88,1.14,1.78,2.27,2.73,3.34,1.18,1.33,2.42,2.6,3.63,3.89.62.65,1.21,1.33,1.86,1.93,1.39,1.27,2.78,2.55,4.24,3.73,1.67,1.35,3.41,2.62,5.14,3.89a2.36,2.36,0,0,1,.88.81,1.28,1.28,0,0,1-.3,1.79l-.26.14a41.15,41.15,0,0,0-5.27,3.92c-1.49,1.26-2.93,2.56-4.38,3.87-.87.8-1.74,1.61-2.55,2.47C29,34.36,27.72,35.8,26.48,37.3S24.06,40.41,22.86,42A1.38,1.38,0,0,1,21,42.6h0a1.47,1.47,0,0,1-.62-.48c-.88-1.19-1.7-2.42-2.6-3.59S16,36.32,15.1,35.27s-1.88-2.05-2.87-3C11,31,9.65,29.71,8.29,28.5A75.27,75.27,0,0,0,1.4,23.05l-.81-.57A1.44,1.44,0,0,1,0,21.1ZM21.65,37.37a4,4,0,0,0,2-.85,52.54,52.54,0,0,0,6.82-5.82c1.42-1.41,2.77-2.91,4.09-4.41a33.19,33.19,0,0,0,2.37-3.05,3,3,0,0,0,.75-1.88,3.39,3.39,0,0,0-.8-1.81A50.17,50.17,0,0,0,31.38,13c-1.54-1.56-3.18-3-4.83-4.5a31.23,31.23,0,0,0-3-2.37A2.88,2.88,0,0,0,20.09,6c-.5.38-1,.78-1.5,1.14a49.05,49.05,0,0,0-5.49,4.79c-1.54,1.49-3,3.06-4.43,4.67A39.92,39.92,0,0,0,6,20.11a2.16,2.16,0,0,0,0,2.58,41.05,41.05,0,0,0,4.35,5.41c1,1.12,2.19,2.18,3.31,3.23s2.24,2,3.37,3a22.08,22.08,0,0,0,3.74,2.77A4.67,4.67,0,0,0,21.65,37.37Z" transform="translate(0.01 -0.02)"/><path class="cls-1" d="M30.78,41.45a2.2,2.2,0,0,1-2.27-2.11v-.09a2.29,2.29,0,0,1,4.58,0,2.18,2.18,0,0,1-2.16,2.2Zm-.19-2.08h-.16a4.57,4.57,0,0,1,0,.74c0,.12-.15.21-.22.31-.09-.1-.25-.21-.26-.32V38.28c0-.28.12-.37.38-.34s.57.06.86.07a.63.63,0,0,1,.65.52.66.66,0,0,1-.29.75.35.35,0,0,0-.11.32c.13.28.3.54.46.82A1.67,1.67,0,1,0,29.22,39a1.73,1.73,0,0,0,1.18,1.91,1.26,1.26,0,0,0,1.44-.47c-.57.15-.75-.22-.92-.62a3.39,3.39,0,0,0-.33-.42ZM30.46,39c.29-.07.53-.12.75-.19v-.25c-.22-.09-.46-.16-.74-.25Z" transform="translate(0.01 -0.02)"/><path class="cls-1" d="M36.76,21.53a5.87,5.87,0,0,1-.42,1c-.87,1.18-1.74,2.36-2.67,3.49-.68.83-1.45,1.58-2.19,2.36-.55.59-1.09,1.21-1.68,1.76a44.34,44.34,0,0,1-5.3,4.57c-.49.34-.94.75-1.44,1.08a2.23,2.23,0,0,1-3-.22c-1.4-1.15-2.84-2.24-4.18-3.45-1.65-1.49-3.27-3-4.78-4.63-1.36-1.43-2.57-3-3.81-4.53a2.22,2.22,0,0,1,0-3.14l0,0c1.06-1.32,2.14-2.63,3.26-3.91.95-1.08,1.94-2.14,3-3.14a58.16,58.16,0,0,1,6.72-5.62,2.16,2.16,0,0,1,3,0,27.5,27.5,0,0,1,2.56,2c1.69,1.49,3.4,3,5,4.57a41.65,41.65,0,0,1,5.41,6.51A7.19,7.19,0,0,1,36.76,21.53ZM18.84,19.37a.19.19,0,0,0-.08-.16L17,18.11a.6.6,0,0,0-.35-.08,9.23,9.23,0,0,0-1.45.42,6.82,6.82,0,0,0-2.52,1.6,1.55,1.55,0,0,0-.2,2.09,4.38,4.38,0,0,0,1.14,1,16.31,16.31,0,0,0,7,1.64A20.65,20.65,0,0,0,26,24.25a8.36,8.36,0,0,0,3.29-1.32,1.62,1.62,0,0,0,.6-2.21,1.57,1.57,0,0,0-.6-.6l-1-.68.6-.21V19.1l-3.88-1c.23.66.44,1.24.65,1.85l.49-.12a2.21,2.21,0,0,1,.85-.11,2.8,2.8,0,0,1,1.52.92,1,1,0,0,1-.06,1.38,4.09,4.09,0,0,1-1.78,1,16.85,16.85,0,0,1-5.6.67,15.73,15.73,0,0,1-3.91-.69,2.91,2.91,0,0,1-1.47-.87.83.83,0,0,1-.08-1.07,3,3,0,0,1,1.76-1.28C17.81,19.66,18.32,19.53,18.84,19.37Zm5.33-2.68c-.86-2.35-1.68-4.61-2.5-6.87h-.12l-2.35,6.8c.46,0,.82.11,1.19.12s.36.16.35.42c0,.88,0,1.76-.09,2.64s-.11,1.78-.16,2.66v.85h2.16c0-.64-.09-1.22-.11-1.79-.06-1.42-.12-2.85-.17-4.28,0-.49.06-.56.57-.56Zm-4,15a10.7,10.7,0,0,0,2.65.1c.08,0,.23-.23.23-.35A9.65,9.65,0,0,0,23,30c0-.94-.05-1.89-.09-2.84a10,10,0,0,0-.09-1.64c0-.17-.14-.46-.22-.46H20.45c-.1,2.26-.2,4.45-.29,6.66Z" transform="translate(0.01 -0.02)"/></svg>