<svg id="Layer_1" data-name="Layer 1" xmlns="http://www.w3.org/2000/svg" viewBox="0 0 279.73 36.41"><path d="M360.18,501.51V465.86h9v35.65Z" transform="translate(-360.18 -465.47)"/><path d="M377.35,501.51V465.86H399.9v6.67H386.23v7.53h10.55v6.48H386.23v8.15h15.06v6.82Z" transform="translate(-360.18 -465.47)"/><path d="M406.91,501.51V465.86h22.55v6.67H415.78v7.53h10.56v6.48H415.78v8.15h15.07v6.82Z" transform="translate(-360.18 -465.47)"/><path d="M436.46,501.51V465.86H459v6.67H445.34v7.53h10.55v6.48H445.34v8.15H460.4v6.82Z" transform="translate(-360.18 -465.47)"/><path d="M484,501.89a26.78,26.78,0,0,1-4.4-.35,25.17,25.17,0,0,1-3.56-.83,10.41,10.41,0,0,1-2.14-.88l1.18-4.59a14.19,14.19,0,0,0,2.28,1,20,20,0,0,0,3,.82,16.76,16.76,0,0,0,3.32.33,9.3,9.3,0,0,0,5-1.11,3.93,3.93,0,0,0,1.73-3.59,4.51,4.51,0,0,0-.87-2.82,8.56,8.56,0,0,0-2.58-2.15c-1.14-.67-2.57-1.42-4.28-2.23a28.42,28.42,0,0,1-4.23-2.59,13.5,13.5,0,0,1-3.37-3.55,8.42,8.42,0,0,1-1.32-4.68,8.54,8.54,0,0,1,1-4.35,8,8,0,0,1,2.74-2.85,12.46,12.46,0,0,1,3.85-1.56,19.75,19.75,0,0,1,4.36-.48,19.47,19.47,0,0,1,5.4.64,12,12,0,0,1,3.07,1.26l-1.11,4.44a15.88,15.88,0,0,0-2.86-1.38,13.28,13.28,0,0,0-4.5-.61,11.13,11.13,0,0,0-3.24.45,5.66,5.66,0,0,0-2.4,1.39,3.31,3.31,0,0,0-.91,2.4,5.24,5.24,0,0,0,.68,2.77,6.83,6.83,0,0,0,2.22,2.09c1,.65,2.37,1.4,4,2.27,1.2.62,2.39,1.28,3.55,2a19.94,19.94,0,0,1,3.18,2.31,10.18,10.18,0,0,1,2.28,2.92,8,8,0,0,1,.85,3.75,9.23,9.23,0,0,1-1.52,5.43,9.08,9.08,0,0,1-4.22,3.24A16.91,16.91,0,0,1,484,501.89Z" transform="translate(-360.18 -465.47)"/><path d="M502.4,501.51v-35.7l2.64.05q1.18,0,2.4-.09l2.64-.16c.94-.06,2-.09,3.17-.09a18.22,18.22,0,0,1,6.74,1.06,8.15,8.15,0,0,1,3.91,3,7.92,7.92,0,0,1,1.27,4.47,10.84,10.84,0,0,1-.57,3.41,8.2,8.2,0,0,1-1.76,3,6.32,6.32,0,0,1-3.09,1.81,7.43,7.43,0,0,1,3.92,1.33,9,9,0,0,1,2.77,3.09,8.37,8.37,0,0,1,1,4.09,12.35,12.35,0,0,1-1.29,5.74,8.94,8.94,0,0,1-4.44,3.91,21.8,21.8,0,0,1-8.71,1.41c-1.39,0-2.83,0-4.32-.13l-3.52-.2ZM508,481.09a11.84,11.84,0,0,0,1.44.13c.53,0,1.07,0,1.63,0l1.62,0h1.43a5.53,5.53,0,0,0,4-1.58,6.59,6.59,0,0,0,1.59-4.85,4.49,4.49,0,0,0-1.92-4,9.73,9.73,0,0,0-5.49-1.3c-.29,0-.74,0-1.35,0s-1.22.06-1.79.11a4.92,4.92,0,0,0-1.2.19Zm0,16.17a3.89,3.89,0,0,0,1.41.36c.68.08,1.4.13,2.18.16l2,0a11.06,11.06,0,0,0,6-1.41q2.19-1.42,2.19-5a5.55,5.55,0,0,0-2-4.72q-2-1.47-6.08-1.47h-1.48c-.53,0-1.07,0-1.6,0l-1.5,0a11.56,11.56,0,0,0-1.2.1Z" transform="translate(-360.18 -465.47)"/><path d="M540,483.85a22.69,22.69,0,0,1,1.3-8.07,15.93,15.93,0,0,1,3.58-5.74,14.93,14.93,0,0,1,5.34-3.43,18.52,18.52,0,0,1,6.55-1.14,32.64,32.64,0,0,1,4.31.23,27.78,27.78,0,0,1,2.87.55c.84.22,1.78.42,2.82.62l-.24,5a18.89,18.89,0,0,0-3.9-1.43,26.15,26.15,0,0,0-6.12-.56,9.87,9.87,0,0,0-5.53,1.58,10.59,10.59,0,0,0-3.78,4.56,17.16,17.16,0,0,0-1.37,7.2,21.78,21.78,0,0,0,1.15,7.29,11.3,11.3,0,0,0,3.52,5.17,9.25,9.25,0,0,0,6,1.91,24.4,24.4,0,0,0,3.89-.32,7.65,7.65,0,0,0,3-1v-9.45l1.41,1-7.7-.34v-4.1h11.71v15.9a5.6,5.6,0,0,0-1.78.45c-.65.26-1.44.56-2.35.88a22.18,22.18,0,0,1-3.32.87,25.32,25.32,0,0,1-4.69.37,16.59,16.59,0,0,1-9-2.34,15.11,15.11,0,0,1-5.67-6.42A21.08,21.08,0,0,1,540,483.85Z" transform="translate(-360.18 -465.47)"/><path d="M575.78,501.51V465.86h20.73v4.32H581.44V481h11.18v4.27H581.44v11.8h16.75v4.42Z" transform="translate(-360.18 -465.47)"/><path d="M601,483.83a21.42,21.42,0,0,1,1.33-7.85,16.67,16.67,0,0,1,3.66-5.76,15.66,15.66,0,0,1,5.33-3.55,17,17,0,0,1,6.35-1.2,31.58,31.58,0,0,1,4.52.28,27.21,27.21,0,0,1,3,.59c.78.21,1.42.37,1.9.48l-.82,5c-.26-.16-.7-.38-1.32-.67a12.61,12.61,0,0,0-2.61-.8A20.37,20.37,0,0,0,618,470a10.89,10.89,0,0,0-6,1.65,10.66,10.66,0,0,0-4,4.68,16.87,16.87,0,0,0-1.41,7.18,17.86,17.86,0,0,0,1.38,7.23,11.49,11.49,0,0,0,4,5,10.54,10.54,0,0,0,6.17,1.8,19.29,19.29,0,0,0,3.54-.34,19.5,19.5,0,0,0,3.14-.84,6.85,6.85,0,0,0,2-1V500q-1,.41-2.28.84a19.45,19.45,0,0,1-2.86.73,21.33,21.33,0,0,1-3.83.3,17,17,0,0,1-8.9-2.27,15.37,15.37,0,0,1-5.88-6.33A20.47,20.47,0,0,1,601,483.83Z" transform="translate(-360.18 -465.47)"/><path d="M634.24,501.51V465.86h5.66v35.65Z" transform="translate(-360.18 -465.47)"/></svg>