<svg id="Layer_1" data-name="Layer 1" xmlns="http://www.w3.org/2000/svg" viewBox="0 0 279.72 36.47"><defs><style>.cls-1{fill:#ddd;}</style></defs><path class="cls-1" d="M0,36V.39H9V36Z" transform="translate(0 0.04)"/><path class="cls-1" d="M17.17,36V.39H39.72V7.06H26.05v7.53H36.6v6.48H26.05v8.15H41.11V36Z" transform="translate(0 0.04)"/><path class="cls-1" d="M46.73,36V.39H69.28V7.06H55.6v7.53H66.16v6.48H55.6v8.15H70.67V36Z" transform="translate(0 0.04)"/><path class="cls-1" d="M76.28,36V.39H98.82V7.06H85.16v7.53H95.71v6.48H85.16v8.15h15.06V36Z" transform="translate(0 0.04)"/><path class="cls-1" d="M123.82,36.42a27,27,0,0,1-4.4-.35,25.21,25.21,0,0,1-3.56-.83,10.48,10.48,0,0,1-2.14-.88l1.18-4.59a14.46,14.46,0,0,0,2.28,1,20.8,20.8,0,0,0,3,.82,16.84,16.84,0,0,0,3.32.33,9.26,9.26,0,0,0,5-1.11,3.91,3.91,0,0,0,1.73-3.59,4.54,4.54,0,0,0-.87-2.82,8.62,8.62,0,0,0-2.58-2.15c-1.14-.67-2.57-1.42-4.28-2.23a29,29,0,0,1-4.23-2.59,13.55,13.55,0,0,1-3.37-3.55,8.42,8.42,0,0,1-1.32-4.68,8.57,8.57,0,0,1,1-4.35A8,8,0,0,1,117.32,2,12.53,12.53,0,0,1,121.17.44,20,20,0,0,1,125.53,0a19.67,19.67,0,0,1,5.4.64A12.11,12.11,0,0,1,134,1.86L132.89,6.3A15.71,15.71,0,0,0,130,4.92a13.2,13.2,0,0,0-4.5-.61,11.07,11.07,0,0,0-3.24.45,5.64,5.64,0,0,0-2.4,1.39,3.34,3.34,0,0,0-.91,2.4,5.25,5.25,0,0,0,.68,2.77,6.72,6.72,0,0,0,2.22,2.09c1,.65,2.37,1.4,4,2.27,1.2.62,2.39,1.28,3.55,2A20,20,0,0,1,132.61,20a10.25,10.25,0,0,1,2.28,2.92,8,8,0,0,1,.85,3.75,9.26,9.26,0,0,1-1.52,5.43A9,9,0,0,1,130,35.33,16.71,16.71,0,0,1,123.82,36.42Z" transform="translate(0 0.04)"/><path class="cls-1" d="M142.22,36V.34l2.64,0q1.19,0,2.4-.09L149.9.14c.94-.06,2-.09,3.17-.09a18.41,18.41,0,0,1,6.74,1.06,8.13,8.13,0,0,1,3.91,3A8,8,0,0,1,165,8.58a11,11,0,0,1-.57,3.41,8.34,8.34,0,0,1-1.76,3,6.28,6.28,0,0,1-3.09,1.81,7.34,7.34,0,0,1,3.92,1.33,9,9,0,0,1,2.77,3.09,8.34,8.34,0,0,1,1,4.09A12.28,12.28,0,0,1,166,31.05,8.92,8.92,0,0,1,161.53,35a21.76,21.76,0,0,1-8.71,1.41c-1.39,0-2.83,0-4.32-.13L145,36Zm5.6-20.42a11.67,11.67,0,0,0,1.44.13h4.68a5.58,5.58,0,0,0,4-1.58,6.61,6.61,0,0,0,1.59-4.85,4.49,4.49,0,0,0-1.92-4A9.68,9.68,0,0,0,152.12,4h-1.35c-.61,0-1.22.06-1.79.11a4.85,4.85,0,0,0-1.2.19Zm0,16.17a3.81,3.81,0,0,0,1.41.36c.68.08,1.4.13,2.18.16h2a11,11,0,0,0,6-1.41c1.46-.95,2.19-2.61,2.19-5a5.54,5.54,0,0,0-2-4.72q-2-1.47-6.08-1.47h-4.58c-.4,0-.8.05-1.2.1Z" transform="translate(0 0.04)"/><path class="cls-1" d="M179.82,18.38a22.62,22.62,0,0,1,1.3-8.07,15.89,15.89,0,0,1,3.58-5.74A14.93,14.93,0,0,1,190,1.14,18.55,18.55,0,0,1,196.59,0a32.67,32.67,0,0,1,4.31.23,27.93,27.93,0,0,1,2.87.55c.84.22,1.78.42,2.82.62l-.24,5A18.6,18.6,0,0,0,202.45,5a26.23,26.23,0,0,0-6.12-.56A9.94,9.94,0,0,0,190.8,6,10.57,10.57,0,0,0,187,10.55a17.11,17.11,0,0,0-1.37,7.2A21.77,21.77,0,0,0,186.8,25a11.26,11.26,0,0,0,3.52,5.17,9.28,9.28,0,0,0,6,1.91,24.21,24.21,0,0,0,3.89-.32,7.61,7.61,0,0,0,3-1V21.35l1.41,1-7.7-.34v-4.1h11.71v15.9a5.49,5.49,0,0,0-1.78.45c-.65.26-1.44.56-2.35.88a21.05,21.05,0,0,1-3.32.87,25.44,25.44,0,0,1-4.69.37,16.66,16.66,0,0,1-9-2.34,15.12,15.12,0,0,1-5.67-6.42A21.08,21.08,0,0,1,179.82,18.38Z" transform="translate(0 0.04)"/><path class="cls-1" d="M215.6,36V.39h20.73V4.71H221.26V15.53h11.18V19.8H221.26V31.6H238V36Z" transform="translate(0 0.04)"/><path class="cls-1" d="M240.82,18.36a21.43,21.43,0,0,1,1.33-7.85,16.78,16.78,0,0,1,3.66-5.76,15.57,15.57,0,0,1,5.33-3.55A17.05,17.05,0,0,1,257.49,0,32.56,32.56,0,0,1,262,.28a27.89,27.89,0,0,1,3,.59c.78.21,1.42.37,1.9.48l-.82,5c-.26-.16-.7-.38-1.32-.67a12.5,12.5,0,0,0-2.61-.8,20.35,20.35,0,0,0-4.34-.35,10.87,10.87,0,0,0-6,1.65,10.65,10.65,0,0,0-4,4.68A16.87,16.87,0,0,0,246.41,18a17.76,17.76,0,0,0,1.38,7.23,11.46,11.46,0,0,0,4,5,10.51,10.51,0,0,0,6.17,1.8,19.13,19.13,0,0,0,3.54-.34,18.89,18.89,0,0,0,3.14-.84,6.82,6.82,0,0,0,2-1v4.64q-1,.4-2.28.84a18.74,18.74,0,0,1-2.86.73,20.54,20.54,0,0,1-3.83.3,17,17,0,0,1-8.9-2.27,15.34,15.34,0,0,1-5.88-6.33A20.56,20.56,0,0,1,240.82,18.36Z" transform="translate(0 0.04)"/><path class="cls-1" d="M274.06,36V.39h5.66V36Z" transform="translate(0 0.04)"/></svg>