<svg id="Layer_1" data-name="Layer 1" xmlns="http://www.w3.org/2000/svg" viewBox="0 0 788.13 437.75"><defs><style>.cls-1{fill:#f9f7ce;}.cls-11,.cls-13,.cls-2{fill:#2b130c;}.cls-18,.cls-3{fill:#e5a045;}.cls-4,.cls-5{fill:#222223;}.cls-5,.cls-7,.cls-8,.cls-9{font-size:232.13px;font-family:TypoGraphica;letter-spacing:0.08em;}.cls-6{letter-spacing:0.03em;}.cls-7{fill:#c94343;}.cls-8,.cls-9{fill:none;stroke-miterlimit:10;}.cls-8{stroke:#842c2c;stroke-width:11px;}.cls-9{stroke:#f4e1c1;stroke-width:3px;}.cls-10{fill:#76a38c;}.cls-11,.cls-12,.cls-13,.cls-18{font-size:37.86px;font-family:SSNicksonOne, SS Nickson One;}.cls-11,.cls-12{letter-spacing:0.05em;}.cls-12{fill:#f4ecd9;}.cls-13,.cls-18{letter-spacing:0.05em;}.cls-14{letter-spacing:0.05em;}.cls-15{letter-spacing:0.05em;}.cls-16{letter-spacing:0.05em;}.cls-17{letter-spacing:0.06em;}</style></defs><path class="cls-1" d="M343.29,609.45l.48,2-8.44,1.59.69-2.23-3.38-15.74-4.92,17.31.47,2L319.76,616l.69-2.23-5.29-25-1.29-2.42,7.65-1.45-.52,1.39,3.46,18.11,5.37-19.77-.45-1.21L337.1,582l-.59,1.41L340,601.49l5.37-19.77-.45-1.21,7.72-1.46L351.11,582Z" transform="translate(-195.32 -441.04)"/><path class="cls-1" d="M363,607.82l.87-2.06,1.38-27.23-.68-1.73,18.49-3.49.89,4.08-3.16.15L372,579.2l-.74.59-.45,8.81.7.32,2.46-.47,3.08-1.06-.25,4.86-3,.08-2.46.47-.74.58-.44,8.78.69.31,8.82-1.66,3.21-1-1.33,4.57Z" transform="translate(-195.32 -441.04)"/><path class="cls-1" d="M413.46,598.31,395,601.8l.88-2,1.38-27.23-.68-1.77,7.65-1.44-.81,2-1.25,24.78.69.32,8.76-1.66,3.2-1.05Z" transform="translate(-195.32 -441.04)"/><path class="cls-1" d="M427.38,593.78l1.37-27.19,3.22-2.5,12.33-2.33,2.95,1.34-.2,3.92.68,1.73L440,570.21l.94-2,.08-1.55-.69-.31-4.8.9-.74.59-1.14,22.37.69.31,4.81-.91.74-.58.07-1.51-.75-1.72L447,584.3l-.88,2-.2,4-3.15,2.49-12.33,2.33Z" transform="translate(-195.32 -441.04)"/><path class="cls-1" d="M480.21,556.88l-1.38,27.19-3.14,2.49-12.33,2.33-3-1.33,1.38-27.19,3.21-2.51,12.33-2.32Zm-7,3.31-4.67.88-.74.59L466.63,584l.69.31,4.67-.88.74-.59,1.13-22.33Z" transform="translate(-195.32 -441.04)"/><path class="cls-1" d="M509.56,570.1l-3.12.59-5.89-9.36-.95,18.86.68,1.73-7.66,1.44.88-2,1.38-27.23-.68-1.77,6.88-1.3,7.33,11.27L517,548l6.88-1.3-.88,2.06L521.66,576l.68,1.73-7.65,1.45.87-2,1-18.86Z" transform="translate(-195.32 -441.04)"/><path class="cls-1" d="M535.84,575.21l.87-2.07,1.39-27.23-.69-1.73,18.5-3.49.88,4.08-3.16.15-8.82,1.67-.74.58-.44,8.82.69.31,2.46-.46,3.08-1.07-.25,4.86-3,.08-2.47.47-.74.58-.44,8.78.69.32,8.82-1.67,3.21-1.05-1.33,4.57Z" transform="translate(-195.32 -441.04)"/><path class="cls-1" d="M613.89,534.07l-3.22.17-4,.74-.74.59-1.25,24.78.68,1.73-7.72,1.45.87-2,1.26-24.78-.69-.31-4.09.77-3.2,1,1.32-4.58,19.79-3.73Z" transform="translate(-195.32 -441.04)"/><path class="cls-1" d="M645.1,525.76l-1.38,27.18-3.15,2.5-12.33,2.32-3-1.33,1.38-27.18,3.22-2.51,12.32-2.33Zm-7.05,3.31-4.67.88-.74.58-1.13,22.33.69.32,4.67-.88.74-.59,1.13-22.33Z" transform="translate(-195.32 -441.04)"/><path class="cls-2" d="M346.59,612.91l.48,2-8.44,1.59.7-2.23L336,598.54,331,615.85l.48,2-8.44,1.59.69-2.23-5.29-25-1.29-2.42,7.66-1.45-.52,1.39,3.45,18.11,5.37-19.77-.45-1.21,7.72-1.46-.58,1.4,3.51,18.1,5.38-19.77-.46-1.21,7.73-1.46-1.57,2.92Z" transform="translate(-195.32 -441.04)"/><path class="cls-2" d="M366.34,611.28l.88-2.06L368.6,582l-.69-1.73,18.5-3.49.88,4.07-3.15.16-8.83,1.66-.73.59-.45,8.81.69.32,2.46-.47,3.08-1.06-.25,4.85-3,.09-2.47.46-.73.59-.45,8.78.69.31,8.83-1.67,3.2-1-1.32,4.58Z" transform="translate(-195.32 -441.04)"/><path class="cls-2" d="M416.76,601.76l-18.49,3.49.87-2L400.52,576l-.68-1.77,7.66-1.44-.81,2.05-1.26,24.78.69.31,8.76-1.65,3.2-1Z" transform="translate(-195.32 -441.04)"/><path class="cls-2" d="M430.68,597.24l1.38-27.19,3.21-2.51,12.33-2.32,2.95,1.34-.19,3.92.68,1.73-7.72,1.46.93-2,.08-1.55-.69-.32-4.8.91-.74.58L437,593.62l.69.32,4.8-.91.74-.58.08-1.51-.75-1.72,7.72-1.46-.87,2-.21,4L446,596.24l-12.33,2.33Z" transform="translate(-195.32 -441.04)"/><path class="cls-2" d="M483.52,560.34l-1.38,27.18L479,590l-12.33,2.32-3-1.33L465,563.83l3.21-2.51L480.56,559Zm-7,3.31-4.67.88-.74.58-1.13,22.33.69.32,4.67-.88.74-.59L477.16,564Z" transform="translate(-195.32 -441.04)"/><path class="cls-2" d="M512.86,573.56l-3.12.59-5.88-9.36-1,18.86.68,1.73-7.65,1.44.87-2,1.38-27.23-.68-1.77,6.88-1.3,7.33,11.27,8.63-14.28,6.88-1.3-.87,2.06L525,579.48l.69,1.73L518,582.66l.87-2,1-18.86Z" transform="translate(-195.32 -441.04)"/><path class="cls-2" d="M539.14,578.66l.88-2.06,1.38-27.23-.69-1.73,18.5-3.49.89,4.08-3.16.15L548.11,550l-.73.59-.45,8.81.69.32,2.47-.47,3.07-1.06-.24,4.86-3,.08-2.47.47-.73.58-.45,8.78.69.31,8.83-1.66,3.2-1-1.32,4.57Z" transform="translate(-195.32 -441.04)"/><path class="cls-2" d="M617.19,537.53l-3.22.16-4,.75-.74.58L608,563.8l.68,1.73L601,567l.88-2,1.25-24.78-.69-.31-4.09.77-3.2,1,1.33-4.57,19.79-3.74Z" transform="translate(-195.32 -441.04)"/><path class="cls-2" d="M648.4,529.21,647,556.4l-3.15,2.49-12.32,2.33-3-1.33,1.38-27.18,3.21-2.51,12.33-2.33Zm-7,3.31-4.68.89L636,534l-1.13,22.33.69.32,4.67-.89.73-.58,1.14-22.33Z" transform="translate(-195.32 -441.04)"/><path class="cls-2" d="M345.93,612.22l.48,2L338,615.82l.7-2.23-3.38-15.74-4.93,17.3.47,2-8.43,1.59.69-2.23-5.29-25-1.29-2.43,7.66-1.44-.52,1.39,3.45,18.11,5.37-19.77-.45-1.21,7.72-1.46-.58,1.4,3.51,18.1,5.38-19.78-.46-1.2,7.73-1.46-1.57,2.92Z" transform="translate(-195.32 -441.04)"/><path class="cls-2" d="M365.68,610.59l.88-2.07,1.38-27.22-.69-1.73,18.5-3.49.88,4.07-3.15.15L374.65,582l-.73.58-.45,8.82.69.31,2.46-.46,3.08-1.07-.25,4.86-3,.09-2.47.46-.73.59-.45,8.77.69.32,8.83-1.67,3.2-1.05-1.32,4.58Z" transform="translate(-195.32 -441.04)"/><path class="cls-2" d="M416.1,601.07l-18.49,3.49.87-2,1.38-27.23-.68-1.77,7.66-1.44-.81,2-1.26,24.78.69.31,8.76-1.65,3.2-1.05Z" transform="translate(-195.32 -441.04)"/><path class="cls-2" d="M430,596.55l1.38-27.19,3.21-2.51,12.33-2.32,2.95,1.34-.2,3.92.69,1.73L442.66,573l.93-2,.08-1.55-.69-.32-4.8.91-.74.58-1.13,22.37.69.32,4.8-.91.74-.58.07-1.51-.74-1.72,7.72-1.46-.88,2-.2,4-3.14,2.5L433,597.88Z" transform="translate(-195.32 -441.04)"/><path class="cls-2" d="M482.86,559.65l-1.38,27.18-3.15,2.5L466,591.65l-3-1.33,1.38-27.18,3.21-2.51,12.33-2.33ZM475.81,563l-4.67.88-.74.58-1.13,22.33.69.32,4.67-.89.74-.58,1.13-22.33Z" transform="translate(-195.32 -441.04)"/><path class="cls-2" d="M512.2,572.87l-3.12.58-5.88-9.36-1,18.86.68,1.73-7.65,1.45.87-2,1.38-27.23-.68-1.77,6.88-1.3,7.33,11.27,8.63-14.28,6.88-1.3-.88,2.06-1.38,27.23.69,1.73L517.33,582l.87-2,1-18.86Z" transform="translate(-195.32 -441.04)"/><path class="cls-2" d="M538.48,578l.88-2.06,1.38-27.23-.69-1.73,18.5-3.49.89,4.08-3.16.15-8.83,1.66-.73.59-.45,8.81.69.32,2.47-.47,3.07-1.06-.24,4.85-3,.09-2.47.47-.73.58-.45,8.78.69.31L555.1,571l3.2-1.05L557,574.48Z" transform="translate(-195.32 -441.04)"/><path class="cls-2" d="M616.53,536.84l-3.22.16-4,.75-.73.58-1.26,24.78.68,1.73-7.72,1.46.88-2,1.25-24.78-.69-.32-4.09.78-3.2,1,1.32-4.57,19.8-3.74Z" transform="translate(-195.32 -441.04)"/><path class="cls-2" d="M647.74,528.52l-1.38,27.19-3.15,2.49-12.32,2.33-3-1.33L629.25,532l3.21-2.5,12.33-2.33Zm-7,3.31-4.68.89-.73.58-1.13,22.33.68.31,4.68-.88.73-.58,1.14-22.33Z" transform="translate(-195.32 -441.04)"/><path class="cls-2" d="M345.27,611.52l.48,2-8.44,1.6.69-2.23-3.38-15.74-4.92,17.3.47,2-8.43,1.59.69-2.23-5.29-25-1.29-2.43L323.5,587,323,588.4l3.46,18.11,5.37-19.78-.45-1.2,7.72-1.46-.58,1.4,3.51,18.1,5.38-19.78-.46-1.2,7.72-1.46-1.56,2.92Z" transform="translate(-195.32 -441.04)"/><path class="cls-2" d="M365,609.9l.88-2.07,1.38-27.23-.69-1.72,18.5-3.5.88,4.08-3.15.15L374,581.28l-.74.58-.44,8.82.69.31,2.46-.46,3.08-1.07-.25,4.86-3,.09-2.47.46-.73.58-.45,8.78.69.32,8.83-1.67,3.2-1-1.33,4.58Z" transform="translate(-195.32 -441.04)"/><path class="cls-2" d="M415.44,600.38l-18.5,3.49.88-2,1.38-27.23-.68-1.77,7.66-1.45-.82,2.06-1.25,24.78.69.31,8.76-1.65,3.2-1Z" transform="translate(-195.32 -441.04)"/><path class="cls-2" d="M429.36,595.85l1.38-27.18,3.21-2.51,12.33-2.33,3,1.35-.2,3.91.69,1.74L442,572.28l.93-2,.08-1.55-.69-.32-4.8.91-.74.58-1.13,22.37.69.32,4.8-.91.74-.58.07-1.52-.74-1.71,7.72-1.46-.88,2-.2,4-3.14,2.5-12.33,2.32Z" transform="translate(-195.32 -441.04)"/><path class="cls-2" d="M482.2,559l-1.38,27.19-3.15,2.49L465.34,591l-3-1.33,1.38-27.19,3.21-2.5,12.33-2.33Zm-7.05,3.32-4.67.88-.74.58-1.13,22.33.69.31,4.67-.88.74-.58,1.13-22.33Z" transform="translate(-195.32 -441.04)"/><path class="cls-2" d="M511.54,572.17l-3.12.59-5.88-9.36-1,18.86.68,1.73-7.66,1.45.88-2,1.38-27.22-.68-1.77,6.88-1.3,7.33,11.27L519,550.1l6.88-1.3-.87,2.07-1.39,27.23.69,1.73-7.66,1.44.87-2,1-18.86Z" transform="translate(-195.32 -441.04)"/><path class="cls-2" d="M537.82,577.28l.88-2.06L540.08,548l-.69-1.73,18.5-3.49.88,4.07-3.15.16-8.83,1.66-.73.59-.45,8.81.69.32,2.47-.47,3.07-1.06-.24,4.85-3,.09-2.47.46-.73.59-.45,8.77.69.32,8.83-1.67,3.2-1-1.32,4.58Z" transform="translate(-195.32 -441.04)"/><path class="cls-2" d="M615.87,536.15l-3.22.16-4,.75-.73.58-1.26,24.78.68,1.73-7.72,1.46.88-2,1.25-24.78-.69-.31-4.09.77-3.2,1,1.32-4.57,19.8-3.74Z" transform="translate(-195.32 -441.04)"/><path class="cls-2" d="M647.08,527.83,645.7,555l-3.15,2.49-12.32,2.33-3-1.33,1.38-27.19,3.21-2.5,12.33-2.33Zm-7,3.31-4.68.88-.73.59-1.14,22.33.69.31,4.68-.88.73-.58,1.14-22.33Z" transform="translate(-195.32 -441.04)"/><path class="cls-2" d="M344.61,610.83l.48,2-8.44,1.6.69-2.24L334,596.47,329,613.77l.47,2-8.43,1.6.69-2.24-5.29-24.95-1.29-2.43,7.66-1.44-.53,1.39,3.46,18.1L331.15,586l-.45-1.21,7.72-1.45-.59,1.4,3.52,18.1,5.38-19.78-.46-1.21,7.72-1.45-1.56,2.92Z" transform="translate(-195.32 -441.04)"/><path class="cls-2" d="M364.36,609.21l.87-2.07,1.39-27.23-.69-1.73,18.5-3.49.88,4.08-3.16.15-8.82,1.67-.74.58-.44,8.82.69.31,2.46-.46,3.08-1.07-.25,4.86-3,.08-2.47.47-.74.58-.44,8.78.69.32,8.83-1.67,3.2-1.05-1.33,4.57Z" transform="translate(-195.32 -441.04)"/><path class="cls-2" d="M414.78,599.69l-18.5,3.49.88-2,1.38-27.23-.68-1.77,7.66-1.45-.82,2-1.25,24.78.69.32,8.76-1.66,3.2-1Z" transform="translate(-195.32 -441.04)"/><path class="cls-2" d="M428.7,595.16,430.08,568l3.21-2.51,12.33-2.33,2.95,1.34-.2,3.92.69,1.73-7.73,1.46.94-2,.08-1.55-.69-.31-4.8.91-.74.58L435,591.55l.69.32,4.8-.91.74-.59.07-1.51-.74-1.71,7.72-1.46-.88,2-.2,4-3.14,2.5-12.33,2.32Z" transform="translate(-195.32 -441.04)"/><path class="cls-2" d="M481.53,558.26l-1.37,27.19L477,587.94l-12.33,2.33-3-1.33L463,561.75l3.21-2.5,12.33-2.33Zm-7,3.31-4.67.89-.74.58L468,585.37l.69.31,4.67-.88.74-.58,1.13-22.33Z" transform="translate(-195.32 -441.04)"/><path class="cls-2" d="M510.88,571.48l-3.12.59-5.88-9.36-1,18.86.68,1.73L494,584.75l.87-2,1.38-27.23-.68-1.77,6.88-1.3,7.33,11.27,8.63-14.28,6.88-1.3-.88,2.07L523,577.41l.69,1.73L516,580.58l.87-2,1-18.86Z" transform="translate(-195.32 -441.04)"/><path class="cls-2" d="M537.16,576.59l.87-2.07,1.39-27.22-.69-1.73,18.5-3.49.88,4.07-3.16.15L546.13,548l-.74.58-.44,8.82.69.31,2.46-.46,3.08-1.07-.25,4.86-3,.09-2.47.46-.74.59-.44,8.77.69.32,8.83-1.67,3.2-1.05-1.33,4.58Z" transform="translate(-195.32 -441.04)"/><path class="cls-2" d="M615.21,535.45l-3.22.17-4,.75-.73.58L606,561.73l.68,1.73L599,564.92l.87-2,1.26-24.78-.69-.31-4.09.77-3.2,1,1.32-4.57,19.8-3.74Z" transform="translate(-195.32 -441.04)"/><path class="cls-2" d="M646.42,527.14,645,554.33l-3.15,2.49-12.33,2.33-3-1.33,1.37-27.19,3.22-2.51,12.32-2.32Zm-7,3.31-4.67.88-.73.59-1.14,22.33.69.31,4.68-.88.73-.59,1.13-22.33Z" transform="translate(-195.32 -441.04)"/><path class="cls-2" d="M344,610.14l.48,2L336,613.74l.69-2.23-3.38-15.74-4.92,17.31.47,2-8.43,1.59.69-2.23-5.29-25-1.29-2.42,7.65-1.44-.52,1.39,3.46,18.1,5.37-19.77-.45-1.21,7.72-1.46-.59,1.41,3.52,18.09,5.37-19.77-.45-1.21,7.72-1.46-1.56,2.93Z" transform="translate(-195.32 -441.04)"/><path class="cls-2" d="M363.7,608.51l.87-2.06L366,579.22l-.68-1.73,18.5-3.49.88,4.08-3.16.15-8.82,1.67-.74.58-.45,8.82.7.31,2.46-.47,3.08-1.06-.25,4.86-3,.08-2.46.47-.74.58-.44,8.78.69.31,8.82-1.66,3.21-1L382.19,605Z" transform="translate(-195.32 -441.04)"/><path class="cls-2" d="M414.12,599l-18.5,3.49.88-2,1.38-27.22-.68-1.77,7.65-1.45-.81,2.05-1.25,24.78.69.32,8.76-1.66,3.2-1Z" transform="translate(-195.32 -441.04)"/><path class="cls-2" d="M428,594.47l1.38-27.19,3.21-2.5L445,562.45l3,1.34-.2,3.92.68,1.73-7.72,1.46.94-2,.08-1.55L441,567l-4.8.9-.74.59-1.13,22.37.69.31,4.8-.9.74-.59.07-1.51-.75-1.72,7.73-1.45-.88,2-.2,4-3.15,2.49-12.33,2.33Z" transform="translate(-195.32 -441.04)"/><path class="cls-2" d="M480.87,557.57l-1.38,27.19-3.14,2.49L464,589.58l-3-1.33,1.38-27.19,3.21-2.5,12.33-2.33Zm-7,3.31-4.67.88-.74.59-1.13,22.33.69.31,4.67-.88.74-.58,1.13-22.33Z" transform="translate(-195.32 -441.04)"/><path class="cls-2" d="M510.22,570.79l-3.12.59L501.21,562l-.95,18.86.68,1.73-7.66,1.44.88-2,1.38-27.23-.68-1.77,6.88-1.3L509.07,563l8.63-14.28,6.88-1.3-.88,2.07-1.38,27.22.68,1.73-7.65,1.45.87-2,1-18.86Z" transform="translate(-195.32 -441.04)"/><path class="cls-2" d="M536.5,575.9l.88-2.07,1.38-27.23-.69-1.73,18.5-3.49.88,4.08-3.16.15-8.82,1.67-.74.58-.44,8.82.69.31,2.46-.46,3.08-1.07-.25,4.86-3,.08-2.47.47-.74.58-.44,8.78.69.32,8.83-1.67,3.2-1L555,572.41Z" transform="translate(-195.32 -441.04)"/><path class="cls-2" d="M614.55,534.76l-3.22.17-4,.75-.73.58L605.38,561l.68,1.73-7.72,1.45.87-2,1.26-24.78-.69-.31-4.09.77-3.2,1,1.32-4.58,19.8-3.73Z" transform="translate(-195.32 -441.04)"/><path class="cls-2" d="M645.76,526.45l-1.38,27.18-3.15,2.5-12.33,2.33-3-1.33,1.38-27.19,3.22-2.51,12.33-2.32Zm-7,3.31-4.67.88-.74.58-1.13,22.33.69.32,4.67-.88.74-.59,1.13-22.33Z" transform="translate(-195.32 -441.04)"/><path class="cls-2" d="M343.29,609.45l.48,2-8.44,1.59.69-2.23-3.38-15.74-4.92,17.31.47,2L319.76,616l.69-2.23-5.29-25-1.29-2.42,7.65-1.45-.52,1.39,3.46,18.11,5.37-19.77-.45-1.21L337.1,582l-.59,1.41L340,601.49l5.37-19.77-.45-1.21,7.72-1.46L351.11,582Z" transform="translate(-195.32 -441.04)"/><path class="cls-2" d="M363,607.82l.87-2.06,1.38-27.23-.68-1.73,18.49-3.49.89,4.08-3.16.15L372,579.2l-.74.59-.45,8.81.7.32,2.46-.47,3.08-1.06-.25,4.86-3,.08-2.46.47-.74.58-.44,8.78.69.31,8.82-1.66,3.21-1-1.33,4.57Z" transform="translate(-195.32 -441.04)"/><path class="cls-2" d="M413.46,598.31,395,601.8l.88-2,1.38-27.23-.68-1.77,7.65-1.44-.81,2-1.25,24.78.69.32,8.76-1.66,3.2-1.05Z" transform="translate(-195.32 -441.04)"/><path class="cls-2" d="M427.38,593.78l1.37-27.19,3.22-2.5,12.33-2.33,2.95,1.34-.2,3.92.68,1.73L440,570.21l.94-2,.08-1.55-.69-.31-4.8.9-.74.59-1.14,22.37.69.31,4.81-.91.74-.58.07-1.51-.75-1.72L447,584.3l-.88,2-.2,4-3.15,2.49-12.33,2.33Z" transform="translate(-195.32 -441.04)"/><path class="cls-2" d="M480.21,556.88l-1.38,27.19-3.14,2.49-12.33,2.33-3-1.33,1.38-27.19,3.21-2.51,12.33-2.32Zm-7,3.31-4.67.88-.74.59L466.63,584l.69.31,4.67-.88.74-.59,1.13-22.33Z" transform="translate(-195.32 -441.04)"/><path class="cls-2" d="M509.56,570.1l-3.12.59-5.89-9.36-.95,18.86.68,1.73-7.66,1.44.88-2,1.38-27.23-.68-1.77,6.88-1.3,7.33,11.27L517,548l6.88-1.3-.88,2.06L521.66,576l.68,1.73-7.65,1.45.87-2,1-18.86Z" transform="translate(-195.32 -441.04)"/><path class="cls-2" d="M535.84,575.21l.87-2.07,1.39-27.23-.69-1.73,18.5-3.49.88,4.08-3.16.15-8.82,1.67-.74.58-.44,8.82.69.31,2.46-.46,3.08-1.07-.25,4.86-3,.08-2.47.47-.74.58-.44,8.78.69.32,8.82-1.67,3.21-1.05-1.33,4.57Z" transform="translate(-195.32 -441.04)"/><path class="cls-2" d="M613.89,534.07l-3.22.17-4,.74-.74.59-1.25,24.78.68,1.73-7.72,1.45.87-2,1.26-24.78-.69-.31-4.09.77-3.2,1,1.32-4.58,19.79-3.73Z" transform="translate(-195.32 -441.04)"/><path class="cls-2" d="M645.1,525.76l-1.38,27.18-3.15,2.5-12.33,2.32-3-1.33,1.38-27.18,3.22-2.51,12.32-2.33Zm-7.05,3.31-4.67.88-.74.58-1.13,22.33.69.32,4.67-.88.74-.59,1.13-22.33Z" transform="translate(-195.32 -441.04)"/><path class="cls-3" d="M343.29,609.45l.48,2-8.44,1.59.69-2.23-3.38-15.74-4.92,17.31.47,2L319.76,616l.69-2.23-5.29-25-1.29-2.42,7.65-1.45-.52,1.39,3.46,18.11,5.37-19.77-.45-1.21L337.1,582l-.59,1.41L340,601.49l5.37-19.77-.45-1.21,7.72-1.46L351.11,582Z" transform="translate(-195.32 -441.04)"/><path class="cls-3" d="M363,607.82l.87-2.06,1.38-27.23-.68-1.73,18.49-3.49.89,4.08-3.16.15L372,579.2l-.74.59-.45,8.81.7.32,2.46-.47,3.08-1.06-.25,4.86-3,.08-2.46.47-.74.58-.44,8.78.69.31,8.82-1.66,3.21-1-1.33,4.57Z" transform="translate(-195.32 -441.04)"/><path class="cls-3" d="M413.46,598.31,395,601.8l.88-2,1.38-27.23-.68-1.77,7.65-1.44-.81,2-1.25,24.78.69.32,8.76-1.66,3.2-1.05Z" transform="translate(-195.32 -441.04)"/><path class="cls-3" d="M427.38,593.78l1.37-27.19,3.22-2.5,12.33-2.33,2.95,1.34-.2,3.92.68,1.73L440,570.21l.94-2,.08-1.55-.69-.31-4.8.9-.74.59-1.14,22.37.69.31,4.81-.91.74-.58.07-1.51-.75-1.72L447,584.3l-.88,2-.2,4-3.15,2.49-12.33,2.33Z" transform="translate(-195.32 -441.04)"/><path class="cls-3" d="M480.21,556.88l-1.38,27.19-3.14,2.49-12.33,2.33-3-1.33,1.38-27.19,3.21-2.51,12.33-2.32Zm-7,3.31-4.67.88-.74.59L466.63,584l.69.31,4.67-.88.74-.59,1.13-22.33Z" transform="translate(-195.32 -441.04)"/><path class="cls-3" d="M509.56,570.1l-3.12.59-5.89-9.36-.95,18.86.68,1.73-7.66,1.44.88-2,1.38-27.23-.68-1.77,6.88-1.3,7.33,11.27L517,548l6.88-1.3-.88,2.06L521.66,576l.68,1.73-7.65,1.45.87-2,1-18.86Z" transform="translate(-195.32 -441.04)"/><path class="cls-3" d="M535.84,575.21l.87-2.07,1.39-27.23-.69-1.73,18.5-3.49.88,4.08-3.16.15-8.82,1.67-.74.58-.44,8.82.69.31,2.46-.46,3.08-1.07-.25,4.86-3,.08-2.47.47-.74.58-.44,8.78.69.32,8.82-1.67,3.21-1.05-1.33,4.57Z" transform="translate(-195.32 -441.04)"/><path class="cls-3" d="M613.89,534.07l-3.22.17-4,.74-.74.59-1.25,24.78.68,1.73-7.72,1.45.87-2,1.26-24.78-.69-.31-4.09.77-3.2,1,1.32-4.58,19.79-3.73Z" transform="translate(-195.32 -441.04)"/><path class="cls-3" d="M645.1,525.76l-1.38,27.18-3.15,2.5-12.33,2.32-3-1.33,1.38-27.18,3.22-2.51,12.32-2.33Zm-7.05,3.31-4.67.88-.74.58-1.13,22.33.69.32,4.67-.88.74-.59,1.13-22.33Z" transform="translate(-195.32 -441.04)"/><polygon class="cls-2" points="601.52 428.63 599.73 433.85 600.15 434.47 596.29 435.44 595.78 436.09 596.71 435.85 596.19 436.5 597.13 436.27 596.61 436.92 597.54 436.69 597.02 437.34 597.96 437.1 597.44 437.75 602.23 436.56 601.81 435.93 603.08 432.25 601.52 428.63"/><path class="cls-4" d="M861.22,536.12l-10.67-6.55s-10.15-11.65-2.83-29.22,26.73-18.62,26.73-18.62,8.55.06,12.48,3.75l8.2,5.17s8-16.27,24.09-16.18,19.37,6.94,19.37,6.94l22.92,24.36-5,21.84-12.9,16Z" transform="translate(-195.32 -441.04)"/><text class="cls-5" transform="matrix(0.95, -0.17, 0, 1, 46.75, 360.22)">J<tspan class="cls-6" x="102.96" y="0">umanji</tspan></text><path class="cls-4" d="M313.4,626.71l-24.85-31.84-53.12,10.48,1,155.64s-3.56,35.83-41.16,41.74l1.17,48.81,41.66,14.29,27.83-33,24.72-35.35L292.28,643Z" transform="translate(-195.32 -441.04)"/><polygon class="cls-4" points="281.74 239.04 232.54 236.83 232.72 196.16 281.93 198.37 281.74 239.04"/><path class="cls-4" d="M646.4,720.85,606,702.41,593,679.77l-12-30.59,3.54-33.4a87.6,87.6,0,0,1,35.92-36.44c25.39-13.57,46.75-9.73,46.75-9.73s12.82,1.21,21,6.06l26.87,20.7A55.38,55.38,0,0,1,734.28,564a82.16,82.16,0,0,1,35.27-17s18.77-4.59,36.49,6.11l33.4,33.15,7.83,13.46-3,76.59-28.37,18.55-37.43-15.43-24.13,27L716.6,690.75l-8,24.26-38.09-15.78-22.46,21.69Z" transform="translate(-195.32 -441.04)"/><polygon class="cls-4" points="449.76 208.67 409.2 206.85 409.38 167.43 449.94 169.25 449.76 208.67"/><path class="cls-4" d="M310.73,635.44l33.36-6.62,13.51,19.47-1.67-19.67,50.92-10.23,9.59,12.94s5.76-12.72,23.79-21.72,40.38-8,49.57-3.31c0,0,24.21-20.23,54-14.2a71.72,71.72,0,0,1,17.52,5L591,621.07l7.91,93.7,5.18,18.56L569,740.28l-36.76-15.71-24.69,26.6L470.79,736.3l-25.56,27L408,747.55s78.42-76.19,78.86-77.45-16.5-36.54-16.5-36.54l-28.14,15.79,26.5,55.32-36.45,10.72-6.12-4.11L401,754.91l-42.19,20.88L318.51,758l-8.26-15.75-5.62-19.58-7.69-44.93Z" transform="translate(-195.32 -441.04)"/><polygon class="cls-4" points="650.42 156.08 650.69 97.91 703.26 88.12 747.7 80.21 771.57 110.69 750.66 224.52 738.78 232.93 701.36 217.51 677.69 287.42 638.6 274.15 623.65 234.48 651.97 156.15 644.36 164.76 650.42 156.08"/><text class="cls-7" transform="matrix(0.95, -0.17, 0, 1, 8.98, 338.51)">J<tspan class="cls-6" x="102.96" y="0">umanji</tspan></text><text class="cls-8" transform="matrix(0.95, -0.17, 0, 1, 11.75, 338.64)">J<tspan class="cls-6" x="102.96" y="0">umanji</tspan></text><text class="cls-9" transform="matrix(0.95, -0.17, 0, 1, 7.99, 338.46)">J<tspan class="cls-6" x="102.96" y="0">umanji</tspan></text><path d="M531.51,807.88a8.31,8.31,0,0,0-2-1.61,8.34,8.34,0,0,0,1.16-.77l2.31-1.86a8.52,8.52,0,0,0,3.17-6.32l.7-19.79a8.48,8.48,0,0,0-2.74-6.56,6.35,6.35,0,0,0-.58-.58,5.39,5.39,0,0,0-.58-.59,6.55,6.55,0,0,0-.58-.6c-.18-.2-.38-.4-.58-.59a8.57,8.57,0,0,0-3-2.16l-2.21-.94a8.71,8.71,0,0,0-3.25-.67,8.11,8.11,0,0,0-1.77.17l-9,1.83a8.6,8.6,0,0,0-3.68,1.75l-1.41,1.15-.44-.19a8.59,8.59,0,0,0-3.34-.71A8.85,8.85,0,0,0,502,769l-9,1.83a8.54,8.54,0,0,0-3.22,1.42,8.85,8.85,0,0,0-1.79-.21,8.75,8.75,0,0,0-1.76.17l-5.56,1.14a8.46,8.46,0,0,0-3.22,1.4,8.52,8.52,0,0,0-3.52,0l-5.6,1.14a8.7,8.7,0,0,0-2,.66h-.27a8.17,8.17,0,0,0-1.77.17l-5.56,1.13a8.62,8.62,0,0,0-1.59.49,8.42,8.42,0,0,0-1.65.18L450,779.63a9,9,0,0,0-1.92.64h-.22a8.17,8.17,0,0,0-1.77.17l-5.56,1.13a8.69,8.69,0,0,0-3.22,1.4,8.47,8.47,0,0,0-3.51,0l-5.6,1.15a8.3,8.3,0,0,0-2,.66l-.26,0a8.85,8.85,0,0,0-1.77.17L418.64,786a8.18,8.18,0,0,0-2.42.89,8.27,8.27,0,0,0-2.57.13l-5,1a8.43,8.43,0,0,0-4.36,2.39,8.51,8.51,0,0,0-3.19-.66,8.85,8.85,0,0,0-1.77.17l-5.6,1.15a8.46,8.46,0,0,0-4.37,2.39,8.51,8.51,0,0,0-3.19-.66,8.17,8.17,0,0,0-1.77.17l-13.42,2.74a8.82,8.82,0,0,0-2.42.91,7.92,7.92,0,0,0-.85-.05,8.14,8.14,0,0,0-1.76.17l-13.42,2.74a8.58,8.58,0,0,0-2.42.91,8.08,8.08,0,0,0-.85-.05,8.17,8.17,0,0,0-1.77.17L335.72,803a8.45,8.45,0,0,0-3.62,1.7l-2.32,1.86a8.51,8.51,0,0,0-3.16,6.32l-.71,19.79a8.51,8.51,0,0,0,2.74,6.56c.18.2.38.4.58.59s.38.4.58.59.38.4.58.59.39.4.59.59a8.47,8.47,0,0,0,3,2.17l2.21.93a8.56,8.56,0,0,0,5,.5L353,842.78a8.6,8.6,0,0,0,2.45-.92,8.7,8.7,0,0,0,2.59-.11L371.41,839a8.72,8.72,0,0,0,2.45-.92,8.73,8.73,0,0,0,2.59-.11l13.42-2.75a8.2,8.2,0,0,0,2.42-.9,8.58,8.58,0,0,0,2.57-.11l4.21-.87m19.41-4.14-.14-.15.21,0Z" transform="translate(-195.32 -441.04)"/><path class="cls-10" d="M527.51,805.88a8.31,8.31,0,0,0-2-1.61,8.34,8.34,0,0,0,1.16-.77l2.31-1.86a8.52,8.52,0,0,0,3.17-6.32l.7-19.79a8.48,8.48,0,0,0-2.74-6.56,6.35,6.35,0,0,0-.58-.58,5.39,5.39,0,0,0-.58-.59,6.55,6.55,0,0,0-.58-.6c-.18-.2-.38-.4-.58-.59a8.57,8.57,0,0,0-3-2.16l-2.21-.94a8.71,8.71,0,0,0-3.25-.67,8.11,8.11,0,0,0-1.77.17l-9,1.83a8.6,8.6,0,0,0-3.68,1.75l-1.41,1.15-.44-.19a8.59,8.59,0,0,0-3.34-.71A8.85,8.85,0,0,0,498,767l-9,1.83a8.54,8.54,0,0,0-3.22,1.42,8.85,8.85,0,0,0-1.79-.21,8.75,8.75,0,0,0-1.76.17l-5.56,1.14a8.46,8.46,0,0,0-3.22,1.4,8.52,8.52,0,0,0-3.52,0l-5.6,1.14a8.7,8.7,0,0,0-2,.66h-.27a8.17,8.17,0,0,0-1.77.17l-5.56,1.13a8.62,8.62,0,0,0-1.59.49,8.42,8.42,0,0,0-1.65.18L446,777.63a9,9,0,0,0-1.92.64h-.22a8.17,8.17,0,0,0-1.77.17l-5.56,1.13a8.69,8.69,0,0,0-3.22,1.4,8.47,8.47,0,0,0-3.51,0l-5.6,1.15a8.3,8.3,0,0,0-2,.66l-.26,0a8.85,8.85,0,0,0-1.77.17L414.64,784a8.18,8.18,0,0,0-2.42.89,8.27,8.27,0,0,0-2.57.13l-5,1a8.43,8.43,0,0,0-4.36,2.39,8.51,8.51,0,0,0-3.19-.66,8.85,8.85,0,0,0-1.77.17l-5.6,1.15a8.46,8.46,0,0,0-4.37,2.39,8.51,8.51,0,0,0-3.19-.66,8.17,8.17,0,0,0-1.77.17l-13.42,2.74a8.82,8.82,0,0,0-2.42.91,7.92,7.92,0,0,0-.85-.05,8.14,8.14,0,0,0-1.76.17l-13.42,2.74a8.58,8.58,0,0,0-2.42.91,8.08,8.08,0,0,0-.85-.05,8.17,8.17,0,0,0-1.77.17L331.72,801a8.45,8.45,0,0,0-3.62,1.7l-2.32,1.86a8.51,8.51,0,0,0-3.16,6.32l-.71,19.79a8.51,8.51,0,0,0,2.74,6.56c.18.2.38.4.58.59s.38.4.58.59.38.4.58.59.39.4.59.59a8.47,8.47,0,0,0,3,2.17l2.21.93a8.56,8.56,0,0,0,5,.5L349,840.78a8.6,8.6,0,0,0,2.45-.92,8.7,8.7,0,0,0,2.59-.11L367.41,837a8.72,8.72,0,0,0,2.45-.92,8.73,8.73,0,0,0,2.59-.11l13.42-2.75a8.2,8.2,0,0,0,2.42-.9,8.58,8.58,0,0,0,2.57-.11l4.21-.87m19.41-4.14-.14-.15.21,0Z" transform="translate(-195.32 -441.04)"/><text x="-195.32" y="-441.04"/><text class="cls-11" transform="matrix(1.32, -0.26, 0.09, 1, 141.15, 394.96)">TEAM HUNT</text><text x="-195.32" y="-441.04"/><text class="cls-11" transform="matrix(1.32, -0.26, 0.09, 1, 140.52, 394.33)">TEAM HUNT</text><text x="-195.32" y="-441.04"/><text class="cls-11" transform="matrix(1.32, -0.26, 0.09, 1, 139.9, 393.6)">TEAM HUNT</text><text x="-195.32" y="-441.04"/><text class="cls-11" transform="matrix(1.32, -0.26, 0.09, 1, 139.27, 392.88)">TEAM HUNT</text><text x="-195.32" y="-441.04"/><text class="cls-11" transform="matrix(1.32, -0.26, 0.09, 1, 138.38, 392.06)">TEAM HUNT</text><text x="-195.32" y="-441.04"/><text class="cls-12" transform="matrix(1.32, -0.26, 0.09, 1, 137.66, 391.7)">TEAM HUNT</text><text x="-195.32" y="-441.04"/><text class="cls-13" transform="matrix(1.32, -0.25, 0.08, 1, 387.04, 343.49)">N<tspan class="cls-14" x="17.27" y="0">E</tspan><tspan class="cls-15" x="31.39" y="0">XT L</tspan><tspan class="cls-16" x="86.29" y="0">E</tspan><tspan x="100.61" y="0">VE</tspan><tspan class="cls-17" x="131.77" y="0">L</tspan><tspan x="145.59" y="0">S</tspan></text><text x="-195.32" y="-441.04"/><text class="cls-13" transform="matrix(1.32, -0.25, 0.08, 1, 385.84, 343.24)">N<tspan class="cls-14" x="17.27" y="0">E</tspan><tspan class="cls-15" x="31.39" y="0">XT L</tspan><tspan class="cls-16" x="86.29" y="0">E</tspan><tspan x="100.61" y="0">VE</tspan><tspan class="cls-17" x="131.77" y="0">L</tspan><tspan x="145.59" y="0">S</tspan></text><text x="-195.32" y="-441.04"/><text class="cls-13" transform="matrix(1.32, -0.25, 0.08, 1, 384.76, 342.51)">N<tspan class="cls-14" x="17.27" y="0">E</tspan><tspan class="cls-15" x="31.39" y="0">XT L</tspan><tspan class="cls-16" x="86.29" y="0">E</tspan><tspan x="100.61" y="0">VE</tspan><tspan class="cls-17" x="131.77" y="0">L</tspan><tspan x="145.59" y="0">S</tspan></text><text x="-195.32" y="-441.04"/><text class="cls-13" transform="matrix(1.32, -0.25, 0.08, 1, 383.33, 342.14)">N<tspan class="cls-14" x="17.27" y="0">E</tspan><tspan class="cls-15" x="31.39" y="0">XT L</tspan><tspan class="cls-16" x="86.29" y="0">E</tspan><tspan x="100.61" y="0">VE</tspan><tspan class="cls-17" x="131.77" y="0">L</tspan><tspan x="145.59" y="0">S</tspan></text><text x="-195.32" y="-441.04"/><text class="cls-18" transform="matrix(1.32, -0.25, 0.08, 1, 382.37, 341.41)">N<tspan class="cls-14" x="17.27" y="0">E</tspan><tspan class="cls-15" x="31.39" y="0">XT L</tspan><tspan class="cls-16" x="86.29" y="0">E</tspan><tspan x="100.61" y="0">VE</tspan><tspan class="cls-17" x="131.77" y="0">L</tspan><tspan x="145.59" y="0">S</tspan></text></svg>